<svg width="96" height="96" viewBox="0 0 96 96" fill="none" xmlns="http://www.w3.org/2000/svg">
<path d="M7.245 21.75C10.413 17.0444 14.8276 13.3128 19.995 10.9725C21.8748 10.1345 23.853 9.53729 25.8825 9.19503C33.0186 7.95059 40.364 9.32486 46.5675 13.065C49.2974 14.691 51.7277 16.7738 53.7525 19.2225C56.4143 22.3219 58.1847 26.0858 58.875 30.1125C59.1 31.3575 58.56 31.2525 57.84 30.3525C57.3962 29.7781 57.0165 29.1569 56.7075 28.5C56.1984 27.6612 55.7618 26.7805 55.4025 25.8675C53.8279 22.3732 51.4633 19.2922 48.495 16.8675C45.4771 14.4151 41.9912 12.6033 38.25 11.5425C37.6865 11.3698 37.1129 11.2321 36.5325 11.13C35.955 11.0325 35.3775 10.86 34.785 10.815C33.5939 10.6612 32.3933 10.5935 31.1925 10.6125C28.78 10.6298 26.3791 10.9472 24.045 11.5575C22.7741 11.8893 21.5344 12.331 20.34 12.8775C19.7415 13.1538 19.1582 13.4617 18.5925 13.8L17.7225 14.2875L16.89 14.835C14.6509 16.2912 12.6306 18.059 10.89 20.085C9.83175 21.3351 8.87378 22.6667 8.025 24.0675C7.2338 25.4891 6.55668 26.9713 6 28.5C4.23107 33.1727 3.76699 38.2387 4.6575 43.155C5.40771 46.8804 6.98106 50.3909 9.2625 53.43C9.495 53.7675 9.7575 54.0825 10.0125 54.3975C10.2675 54.7125 10.53 55.035 10.815 55.3425C12.8775 57.645 13.62 58.2825 13.815 59.145C13.8699 59.3312 13.9076 59.522 13.9275 59.715C13.9275 59.9775 13.6125 59.955 13.0725 59.715C12.7302 59.5389 12.3995 59.341 12.0825 59.1225C11.715 58.845 11.3325 58.5 10.8525 58.095C8.12053 55.5738 5.95525 52.501 4.5 49.08C3.75759 47.3251 3.18985 45.5013 2.805 43.635C2.43982 41.7468 2.25399 39.8282 2.25 37.905C2.27856 35.0421 2.71805 32.1981 3.555 29.46C4.41208 26.7356 5.63849 24.1414 7.2 21.75H7.245Z" fill="#485B57"/>
<path d="M27.195 67.2225C25.5902 68.6313 23.7461 69.7413 21.75 70.5C21.0499 70.8036 20.3338 71.0689 19.605 71.295C19.0425 71.475 18.465 71.6025 17.895 71.7375L17.0325 71.9175L16.5975 71.9925L16.0575 72.09C15.1425 72.24 14.25 72.36 13.4475 72.4125C12.645 72.465 11.595 72.6375 11.5875 72.3525C12 71.88 12.4725 71.34 12.84 70.8525L13.3725 70.1925L13.7175 69.5925C13.8351 69.4071 13.9355 69.2112 14.0175 69.0075L14.175 68.6325C14.3575 68.1237 14.5029 67.6024 14.61 67.0725C14.9025 65.7075 14.9175 64.29 15.1575 62.8875C15.225 62.46 15.7275 62.4975 16.2225 62.8875C16.5182 63.1387 16.7494 63.457 16.8968 63.8158C17.0443 64.1747 17.1036 64.5636 17.07 64.95C16.9521 66.1689 16.7006 67.3711 16.32 68.535C16.215 68.8275 16.11 69.1275 15.9825 69.4125L15.81 69.795C15.7393 69.8459 15.6717 69.901 15.6075 69.96L15.495 70.0575C15.495 70.0575 15.495 70.0575 15.495 70.1025C15.495 70.1475 15.5475 70.155 15.6075 70.185C15.7187 70.2092 15.8338 70.2092 15.945 70.185H16.0575H16.2225L16.5525 70.1175L17.205 69.9675C18.0675 69.75 18.9225 69.4725 19.7625 69.2175C21.6073 68.6234 23.3482 67.7453 24.9225 66.615C25.163 66.4466 25.3911 66.2612 25.605 66.06C25.8225 65.8575 26.0625 65.6775 26.2575 65.4675L27.0075 64.605L27.24 64.3425C27.24 64.3425 27.24 64.2975 27.3 64.29H27.375H27.54L28.185 64.4175L28.9725 64.56C29.205 64.56 29.43 64.6425 29.6625 64.6725C30.12 64.7475 30.5775 64.8 31.035 64.8525C31.9358 64.9642 32.8424 65.0218 33.75 65.025C35.1547 64.9612 36.5494 64.7552 37.9125 64.41L38.805 64.1775C39.915 63.9075 40.305 63.9225 40.6725 64.365C40.7661 64.4574 40.8515 64.5578 40.9275 64.665C41.1525 65.0175 40.7775 65.49 39.93 65.8125C37.2863 66.748 34.4763 67.121 31.68 66.9075C30.6262 66.851 29.5768 66.7308 28.5375 66.5475L28.1775 66.4875H28.1025C28.0575 66.4875 27.975 66.45 27.99 66.4875L27.855 66.645C27.6767 66.8631 27.4784 67.064 27.2625 67.245L27.195 67.2225Z" fill="#485B57"/>
<path d="M61.4325 35.1075C59.6103 35.6474 57.8505 36.379 56.1825 37.29C54.5237 38.2287 52.972 39.3453 51.555 40.62C50.1479 41.9232 48.9061 43.3942 47.8575 45C45.2862 48.9612 43.9521 53.5981 44.025 58.32C44.0706 63.3046 45.7603 68.1348 48.8319 72.0608C51.9036 75.9868 56.1853 78.789 61.0125 80.0325C63.1637 80.5782 65.3787 80.8305 67.5975 80.7825C68.1525 80.7825 68.7075 80.7825 69.255 80.7075C69.8025 80.6325 70.365 80.64 70.9125 80.535L71.7375 80.4075L72.3675 80.31L72.69 80.265H72.8475C72.8925 80.265 72.9225 80.34 72.96 80.3775L73.71 81.225C73.888 81.413 74.0812 81.5861 74.2875 81.7425C75.7769 82.8952 77.5249 83.6675 79.38 83.9925C80.321 84.174 81.2731 84.2918 82.23 84.345H82.6875H83.4975L83.46 84.285C83.3539 84.1408 83.2562 83.9906 83.1675 83.835L83.04 83.5875L82.905 83.3175C82.845 83.205 82.8 83.0925 82.7475 82.9875C82.3399 82.0953 82.0669 81.1474 81.9375 80.175C81.84 79.3125 81.9375 78.885 82.1325 78.8175C82.3275 78.75 82.5 79.035 82.7625 79.5675C83.025 80.1 83.3775 80.7975 83.8875 81.6C84.015 81.8025 84.15 82.005 84.3 82.2225L84.525 82.545L84.645 82.71L84.8625 83.0325C85.4625 83.9325 86.43 85.0725 87.3075 86.235C87.0825 86.28 86.7525 86.31 86.445 86.3475L85.5075 86.4525C85.1775 86.4525 84.8475 86.52 84.5025 86.535H83.4075H82.86H82.35H81.765C81.375 86.4975 81.015 86.475 80.5875 86.415C79.7989 86.3209 79.0172 86.1756 78.2475 85.98C76.6437 85.6022 75.1199 84.9419 73.7475 84.03C73.394 83.8059 73.058 83.5552 72.7425 83.28C72.577 83.1494 72.4215 83.0065 72.2775 82.8525L72.06 82.6125L70.98 82.7625C70.23 82.86 69.435 82.8975 68.6625 82.9575C67.89 83.0175 67.1175 82.9575 66.3375 82.9575C63.2138 82.844 60.1354 82.1735 57.2475 80.9775C54.3598 79.7692 51.7357 78.0088 49.5225 75.795C48.1942 74.411 47.0199 72.8871 46.02 71.25C45.0095 69.6427 44.177 67.9301 43.5375 66.1425C42.2515 62.5408 41.8176 58.6901 42.27 54.8925C42.5304 52.8401 43.034 50.826 43.77 48.8925C44.4845 46.9383 45.4501 45.0852 46.6425 43.38C47.231 42.5254 47.8696 41.7065 48.555 40.9275C49.2655 40.1651 50.0166 39.4416 50.805 38.76C52.3604 37.3857 54.0782 36.207 55.92 35.25C60.4432 32.8651 65.5543 31.8242 70.65 32.25C71.607 32.3262 72.5587 32.4589 73.5 32.6475C73.9736 32.7359 74.4419 32.8511 74.9025 32.9925C75.3675 33.1275 75.84 33.2175 76.29 33.39C77.2018 33.7053 78.0934 34.076 78.96 34.5C79.395 34.71 79.83 34.9125 80.2575 35.1375L81.4875 35.8875L82.1025 36.2625L82.6875 36.69L83.8425 37.545L84.9225 38.49C85.2873 38.7987 85.6329 39.1293 85.9575 39.48L86.9475 40.5C87.2625 40.86 87.5475 41.25 87.8475 41.6175C90.2743 44.6844 91.9398 48.2827 92.7075 52.1175C93.2724 55.0187 93.2902 57.9998 92.76 60.9075C92.5286 62.1853 92.1847 63.4402 91.7325 64.6575C91.1553 66.2883 90.3362 67.823 89.3025 69.21C88.859 69.8636 88.258 70.395 87.555 70.755C87.3319 70.8737 87.0985 70.9716 86.8575 71.0475C86.5575 71.0475 86.6625 70.6875 87.0525 69.945C87.4425 69.2025 88.1025 68.0775 88.8375 66.6C91.0762 62.1133 91.7317 57.0014 90.6975 52.095C89.6394 47.0933 86.916 42.5985 82.9725 39.345C81.5183 38.1258 79.9125 37.0998 78.195 36.2925C77.3397 35.8913 76.4606 35.5431 75.5625 35.25C75.1125 35.1075 74.6475 35.0025 74.19 34.875L73.5 34.665C73.2675 34.6125 73.0275 34.5825 72.795 34.5375C69.0167 33.8479 65.1291 34.0586 61.4475 35.1525L61.4325 35.1075Z" fill="#485B57"/>
<path d="M69.315 46.6875C69.1722 46.5709 69.0066 46.4854 68.8288 46.4367C68.651 46.388 68.4649 46.377 68.2826 46.4046C68.1003 46.4322 67.9259 46.4976 67.7704 46.5967C67.6149 46.6958 67.4819 46.8264 67.38 46.98C67.3275 50.865 70.3275 57.06 71.88 60.6225C72.6825 60.5025 72.63 59.985 72.63 59.325C72.5775 56.865 69.975 47.25 69.315 46.6875Z" fill="#FFA07A"/>
<path d="M61.365 48.9225C61.0564 48.7247 60.682 48.657 60.3237 48.7343C59.9653 48.8116 59.6521 49.0276 59.4525 49.335C59.9925 53.0175 63.045 59.205 64.8075 62.6625C65.6025 62.4975 65.5575 61.98 65.475 61.32C65.25 58.8675 62.1075 49.3575 61.365 48.9225Z" fill="#FFA07A"/>
<path d="M35.355 34.7775C36.3711 33.7483 36.9536 32.3685 36.9825 30.9225C36.9858 30.3936 36.9073 29.8674 36.75 29.3625C36.315 27.5925 34.35 26.3625 32.3025 26.565C31.3927 26.6248 30.5116 26.9082 29.7375 27.39C28.7574 28.0164 27.9604 28.891 27.4275 29.925C27.24 30.24 27.0075 30.135 26.895 29.7225C26.8215 29.4039 26.8183 29.0732 26.8857 28.7533C26.9531 28.4333 27.0893 28.1319 27.285 27.87C28.151 26.6689 29.391 25.7891 30.8106 25.3684C32.2303 24.9476 33.7494 25.0097 35.13 25.545C35.9844 25.8885 36.7526 26.416 37.38 27.09C38.0039 27.7837 38.4402 28.6253 38.6475 29.535C39.0617 31.4597 38.7463 33.4697 37.7625 35.175C37.1207 36.1776 36.2621 37.0233 35.25 37.65C33.825 38.595 32.295 39.2025 31.05 40.095C30.5806 40.4169 30.1611 40.8061 29.805 41.25C29.4808 41.6922 29.2137 42.1735 29.01 42.6825C28.8975 42.93 28.8075 43.185 28.665 43.4325C28.1325 44.3625 27.78 44.55 27.165 44.4C27.0271 44.3775 26.8915 44.3423 26.76 44.295C26.34 44.1075 26.28 43.545 26.52 42.9C26.7 42.3975 26.8575 41.9025 27.1125 41.3475C27.3871 40.7124 27.7647 40.1271 28.23 39.615C29.1425 38.6862 30.1954 37.9067 31.35 37.305C32.91 36.435 34.35 35.7375 35.2875 34.7325L35.355 34.7775Z" fill="#FFA07A"/>
<path d="M26.43 48.81V48.9525C26.3911 49.1373 26.3122 49.3112 26.1988 49.4622C26.0854 49.6131 25.9403 49.7373 25.7736 49.826C25.6069 49.9146 25.4229 49.9657 25.2343 49.9755C25.0458 49.9852 24.8574 49.9535 24.6825 49.8825C24.4342 49.8278 24.2054 49.707 24.0201 49.5329C23.8349 49.3588 23.7002 49.1378 23.6303 48.8935C23.5603 48.6491 23.5578 48.3903 23.6229 48.1446C23.6879 47.8988 23.8182 47.6753 24 47.4975C25.0425 46.35 26.6175 47.445 26.43 48.81Z" fill="#FFA07A"/>
<path d="M68.055 65.8276C68.1075 66.5776 67.6875 67.2301 66.4425 67.0576C66.1945 67.0219 65.9606 66.9208 65.7647 66.7646C65.5687 66.6085 65.418 66.403 65.3278 66.1693C65.2377 65.9355 65.2115 65.682 65.2518 65.4348C65.2922 65.1875 65.3977 64.9555 65.5575 64.7626C66.66 63.2551 67.965 64.6426 68.055 65.8276Z" fill="#FFA07A"/>
<path d="M74.835 63.63C74.835 64.38 74.295 64.9725 73.08 64.65C72.8358 64.5851 72.6136 64.4557 72.4365 64.2754C72.2595 64.0952 72.1341 63.8706 72.0736 63.6253C72.013 63.38 72.0195 63.123 72.0923 62.881C72.1651 62.6391 72.3016 62.4211 72.4875 62.25C73.7625 60.9 74.895 62.4375 74.835 63.63Z" fill="#FFA07A"/>
<path d="M56.025 79.9725C58.2561 81.1071 60.6536 81.8793 63.1275 82.26C64.0322 82.3886 64.9439 82.4613 65.8575 82.4775H67.0725C67.4775 82.4775 67.875 82.4775 68.28 82.425L69.495 82.3575C69.9 82.3575 70.2975 82.245 70.695 82.1925L72.075 81.99C72.2625 81.9 72.3375 82.1175 72.465 82.215L72.7425 82.5075L73.1475 82.935C73.4325 83.205 73.755 83.4375 74.055 83.685C74.355 83.9325 74.7225 84.1125 75.06 84.33C76.3173 84.9967 77.6795 85.4431 79.0875 85.65C80.9021 85.8924 82.7367 85.9477 84.5625 85.815C85.1175 85.815 85.095 86.04 84.6375 86.355C83.8781 86.7882 83.0139 87.0036 82.14 86.9775C80.1569 86.9922 78.1867 86.6571 76.32 85.9875C75.3712 85.643 74.4711 85.1766 73.6425 84.6C73.2365 84.2977 72.8484 83.9722 72.48 83.625L71.9625 83.0625V83.0175C71.9625 83.0175 71.9025 83.0175 71.895 83.0175C69.5542 83.409 67.178 83.5472 64.8075 83.43C62.1852 83.2167 59.6132 82.5889 57.1875 81.57C56.8125 81.405 56.4375 81.255 56.0775 81.09L55.0125 80.5125C54.2999 80.1365 53.6134 79.713 52.9575 79.245C50.9698 77.8434 49.2006 76.1551 47.7075 74.235C46.56 72.765 45.5696 71.1788 44.7525 69.5025C44.5725 69.135 44.4 68.7525 44.22 68.3925C43.6875 66.9525 43.6125 66.4575 43.7625 66.075C43.7856 65.9856 43.821 65.8998 43.8675 65.82C44.0175 65.6325 44.3775 66.1575 44.7825 67.17C46.0125 70.2581 47.8197 73.0835 50.1075 75.495C51.8334 77.3174 53.8638 78.825 56.1075 79.95L56.025 79.9725Z" fill="#485B57"/>
<path d="M28.7175 67.11L28.245 67.02C28.245 67.02 28.2 67.02 28.1925 67.02L27.525 67.71C26.9772 68.1954 26.3957 68.6415 25.785 69.045C25.3502 69.3463 24.8995 69.6242 24.435 69.8775C22.7942 70.7088 21.0661 71.3552 19.2825 71.805C18.495 72.0075 17.715 72.2175 16.9275 72.3975C15.9293 72.6782 14.903 72.8467 13.8675 72.9C13.2225 72.9 13.9425 71.8725 15.0525 71.6775C17.0782 71.334 19.0817 70.8707 21.0525 70.29C22.2481 69.9078 23.3937 69.3841 24.465 68.73C24.7674 68.5679 25.0581 68.385 25.335 68.1825C25.6279 68.0047 25.9062 67.8041 26.1675 67.5825C26.4225 67.3575 26.7075 67.1625 26.9175 66.9225L27.75 66.0525L27.84 65.9625H27.96L28.215 66.0075L28.5975 66.075L29.235 66.18C29.6625 66.2475 30.09 66.315 30.5175 66.3675C31.8053 66.5627 33.108 66.643 34.41 66.6075C35.3896 66.5452 36.3574 66.3587 37.29 66.0525L37.89 65.835C38.64 65.5725 38.91 65.5275 39.1725 65.715C39.2366 65.7513 39.2969 65.794 39.3525 65.8425C39.5025 66 39.2475 66.2925 38.685 66.5925C36.9006 67.388 34.9496 67.738 33 67.6125C31.5618 67.5366 30.1294 67.3763 28.71 67.1325L28.7175 67.11Z" fill="#485B57"/>
<path fill-rule="evenodd" clip-rule="evenodd" d="M67.299 23.189C67.2022 23.18 67.1057 23.2096 67.0308 23.2715C66.9558 23.3334 66.9084 23.4225 66.899 23.5192M67.3409 22.741C67.1256 22.7208 66.911 22.7868 66.7443 22.9245C66.5775 23.0622 66.472 23.2604 66.4511 23.4757L66.4511 23.4758C66.4286 23.7081 66.4465 23.906 66.5161 24.0615C66.5905 24.2277 66.7202 24.3351 66.8819 24.3728C67.0316 24.4076 67.1845 24.3773 67.3144 24.326C67.4469 24.2737 67.5751 24.1921 67.6864 24.0971C67.7978 24.0021 67.899 23.8879 67.9735 23.7649C68.0467 23.6441 68.1031 23.4996 68.1013 23.3483C68.0994 23.1863 68.0302 23.0337 67.8857 22.9225C67.7505 22.8184 67.5645 22.7618 67.341 22.741M67.6113 23.2791C67.5697 23.2471 67.4787 23.2058 67.2992 23.189L67.299 23.189M67.6113 23.2791C67.6436 23.304 67.651 23.3256 67.6513 23.3535L67.6113 23.2791ZM67.6513 23.3535C67.6518 23.3922 67.636 23.4534 67.5886 23.5318L67.6513 23.3535ZM67.5886 23.5318C67.5425 23.6079 67.4746 23.6863 67.3943 23.7548L67.5886 23.5318ZM67.3943 23.7548C67.3138 23.8234 67.2277 23.8765 67.1491 23.9075L67.3943 23.7548ZM67.1491 23.9075C67.0679 23.9395 67.013 23.9413 66.984 23.9345L67.1491 23.9075ZM66.984 23.9345C66.9669 23.9305 66.9471 23.9228 66.9268 23.8776L66.984 23.9345ZM66.9268 23.8776C66.9019 23.822 66.8802 23.7126 66.899 23.5193L66.9268 23.8776Z" fill="#C2CAC8"/>
<path fill-rule="evenodd" clip-rule="evenodd" d="M34.689 76.4465C34.5922 76.4374 34.4957 76.4671 34.4208 76.529C34.3459 76.5908 34.2985 76.6797 34.289 76.7763C34.2712 76.9682 34.2934 77.0766 34.3185 77.1317C34.3388 77.1765 34.3589 77.1846 34.3766 77.1887C34.4061 77.1955 34.4614 77.1936 34.5425 77.1616C34.621 77.1306 34.707 77.0778 34.7871 77.0094C34.8672 76.9411 34.9347 76.8631 34.9805 76.7874C35.0276 76.7095 35.0429 76.6488 35.0424 76.6106C35.042 76.5832 35.0347 76.5616 35.002 76.5366C34.9601 76.5045 34.8688 76.4632 34.6892 76.4465L34.689 76.4465ZM34.7309 75.9984C34.5155 75.9783 34.301 76.0443 34.1343 76.182C33.9675 76.3197 33.862 76.5179 33.8411 76.7332L33.8411 76.7332L33.841 76.7341C33.8195 76.9657 33.8383 77.163 33.9088 77.318C33.9841 77.4835 34.1143 77.59 34.2756 77.6272C34.4252 77.6616 34.5778 77.6314 34.7076 77.5802C34.84 77.528 34.9681 77.4465 35.0792 77.3518C35.1904 77.2569 35.2913 77.143 35.3656 77.0202C35.4385 76.8996 35.4946 76.7552 35.4923 76.604C35.4899 76.442 35.4201 76.29 35.2756 76.1793C35.1403 76.0757 34.9544 76.0192 34.731 75.9984" fill="#C2CAC8"/>
<path d="M82.5375 20.715C82.5991 20.7391 82.6554 20.775 82.7031 20.8208C82.7508 20.8667 82.789 20.9215 82.8155 20.9821C82.842 21.0427 82.8562 21.108 82.8574 21.1741C82.8586 21.2403 82.8467 21.306 82.8225 21.3675C82.3275 22.65 81.195 20.1975 82.5375 20.715Z" fill="#FFA07A"/>
</svg>
