<svg width="96" height="96" viewBox="0 0 96 96" fill="none" xmlns="http://www.w3.org/2000/svg">
<path d="M18.105 61.995C18.1042 62.02 18.1018 62.0448 18.0979 62.0693C18.079 62.4502 18.0687 62.6827 18.0637 62.8183C18.0817 62.7326 18.048 63.2366 18.0637 62.8183C18.0611 62.8305 18.0575 62.8546 18.0525 62.895H17.415C16.9403 62.9246 16.4688 62.9923 16.005 63.0975C15.0225 63.3 14.0025 63.63 12.885 63.9C12.435 63.9975 11.955 64.1925 11.295 64.3425C10.9214 64.4283 10.5377 64.4611 10.155 64.44C9.62914 64.4107 9.12792 64.2075 8.73 63.8625C8.64 63.7725 8.5425 63.675 8.46 63.5775C8.35 63.4256 8.25695 63.2622 8.1825 63.09C8.10208 62.872 8.06885 62.6394 8.085 62.4075C8.09876 62.196 8.15487 61.9894 8.25 61.8C8.48333 61.3819 8.82541 61.0346 9.24 60.795C9.76484 60.4981 10.3144 60.2472 10.8825 60.045L12.2475 59.505C12.4616 59.4373 12.6533 59.3129 12.8025 59.145C12.8323 59.1049 12.8484 59.0563 12.8484 59.0063C12.8484 58.9563 12.8323 58.9076 12.8025 58.8675C12.7394 58.8155 12.6592 58.7888 12.5775 58.7925C12.1819 58.8422 11.7907 58.9225 11.4075 59.0325L10.98 59.115C10.6006 59.1774 10.217 59.21 9.8325 59.2125C9.37459 59.2215 8.91986 59.1347 8.4975 58.9575C8.00981 58.7435 7.61383 58.3635 7.38 57.885C7.22387 57.5882 7.16859 57.2486 7.2225 56.9175C7.28795 56.6004 7.44737 56.3103 7.68 56.085C8.00273 55.7643 8.38485 55.5096 8.805 55.335C9.48795 55.0833 10.1903 54.8877 10.905 54.75L14.5425 54L15 53.85L15.255 53.775C15.3927 53.7273 15.5258 53.667 15.6525 53.595C15.7725 53.535 15.9 53.3925 15.8175 53.25C15.7937 53.1819 15.7561 53.1195 15.707 53.0666C15.658 53.0137 15.5986 52.9714 15.5325 52.9425C15.3662 52.8603 15.1852 52.8118 15 52.8C14.6464 52.7609 14.2906 52.7459 13.935 52.755C13.1673 52.778 12.4013 52.8406 11.64 52.9425C10.1025 53.0526 8.57404 53.2656 7.065 53.58C6.135 53.7375 6.1275 53.4375 6.8175 52.83C8.00225 51.9326 9.4284 51.4102 10.9125 51.33C11.6625 51.2625 12.51 51.15 13.3725 51.12C13.8121 51.0939 14.2529 51.0939 14.6925 51.12H15.0375H15.2325C15.331 51.1277 15.4288 51.1427 15.525 51.165C15.8971 51.2417 16.2593 51.3599 16.605 51.5175C16.9045 51.6336 17.1733 51.8171 17.3905 52.0539C17.6077 52.2906 17.7675 52.5741 17.8575 52.8825L17.9625 53.3325C17.9625 53.4825 17.9625 53.64 17.91 53.79C17.8247 54.0719 17.673 54.3291 17.4675 54.54C16.9025 54.9918 16.2557 55.3304 15.5625 55.5375C15.15 55.6725 14.745 55.785 14.34 55.89C12.7425 56.25 11.13 56.505 9.795 56.9625C9.58549 57.0256 9.38276 57.1089 9.18965 57.2113C9.19188 57.2135 9.19414 57.2156 9.19642 57.2178C9.2431 57.2619 9.29896 57.2951 9.36 57.315C9.62398 57.3982 9.90173 57.4288 10.1775 57.405H10.485C10.616 57.3921 10.7462 57.3721 10.875 57.345C11.2555 57.2489 11.631 57.1338 12 57C12.8325 56.7675 13.7025 56.49 14.415 56.3325C14.9492 56.2107 15.4947 56.1453 16.0425 56.1375C16.4015 56.1342 16.7594 56.177 17.1075 56.265C17.3213 56.3179 17.5209 56.4172 17.692 56.5559C17.8631 56.6946 18.0015 56.8693 18.0975 57.0675C18.1999 57.3034 18.2362 57.5626 18.2025 57.8175C18.1665 58.0184 18.09 58.2098 17.9775 58.38C17.4158 59.1799 16.6453 59.8103 15.75 60.2025C15.0525 60.5325 14.25 60.87 13.4025 61.2L12.1425 61.68L11.355 61.995C11.0238 62.1191 10.7058 62.2755 10.4057 62.4618C10.6648 62.4716 10.9242 62.428 11.1675 62.3325L11.9175 62.1075L12.75 61.86C13.7775 61.5975 14.8425 61.2525 15.9825 61.05C16.7226 60.9013 17.4792 60.8509 18.2325 60.9C18.561 60.948 18.8644 61.1036 19.095 61.3425C19.2949 61.5331 19.4532 61.7629 19.56 62.0175C19.6753 62.3083 19.7014 62.6268 19.635 62.9325C19.5646 63.2123 19.4253 63.4702 19.23 63.6825C18.6261 64.2346 17.881 64.6084 17.0775 64.7625C16.725 64.8675 16.3725 64.92 16.0275 64.9875C15.7215 65.035 15.4185 65.1002 15.12 65.1825C14.2235 65.4234 13.3741 65.8139 12.6075 66.3375C12.2659 66.5659 11.9749 66.862 11.7525 67.2075C11.671 67.3552 11.6128 67.5146 11.58 67.68C11.5755 67.7097 11.5731 67.7395 11.5729 67.7694C11.5979 67.7689 11.6228 67.7666 11.6475 67.7625C11.8491 67.7465 12.048 67.7062 12.24 67.6425C12.6984 67.5057 13.1469 67.3378 13.5825 67.14C14.505 66.75 15.36 66.2775 16.41 65.895C17.1783 65.6518 17.9595 65.4515 18.75 65.295C19.1758 65.2109 19.6068 65.1558 20.04 65.13C20.2914 65.1224 20.543 65.1425 20.79 65.19C21.1659 65.2507 21.5085 65.4419 21.7575 65.73C21.8496 65.8448 21.9348 65.965 22.0125 66.09C22.0853 66.2278 22.148 66.3706 22.2 66.5175C22.3125 66.879 22.3125 67.2661 22.2 67.6275C21.9692 68.167 21.5725 68.6188 21.0675 68.9175C20.353 69.3514 19.5998 69.718 18.8175 70.0125L16.965 70.7625C14.715 71.745 14.3025 72.0075 13.5075 72.015C13.3275 72.015 13.14 72.075 12.9825 72.0675C12.825 72.06 12.6525 71.7675 12.885 71.235C13.272 70.4952 13.8594 69.8792 14.58 69.4575C15.8399 68.7381 17.148 68.1066 18.495 67.5675C19.028 67.3573 19.532 67.0801 19.995 66.7425C20.04 66.7425 20.0325 66.6975 20.055 66.675C20.1225 66.7341 20.1953 66.7868 20.2725 66.8325C20.2816 66.8402 20.2908 66.8475 20.3 66.8545C20.481 66.9914 20.6788 67.0043 20.5575 66.99C20.4783 66.9943 20.4001 67.0094 20.325 67.035C20.325 67.035 20.1675 67.035 20.1 67.1025C20.047 67.121 19.9966 67.1462 19.95 67.1775C19.941 67.1729 19.9331 67.1666 19.9267 67.1588C19.9202 67.1511 19.9154 67.1422 19.9125 67.1325C20.0653 67.0229 20.1932 66.9311 20.3 66.8545C20.2908 66.8475 20.2816 66.8402 20.2725 66.8325C20.1953 66.7868 20.1225 66.7341 20.055 66.675C20.0325 66.6975 20.04 66.7425 19.995 66.7425C19.532 67.0801 19.028 67.3573 18.495 67.5675C17.148 68.1066 15.8399 68.7381 14.58 69.4575C13.8594 69.8792 13.272 70.4952 12.885 71.235C12.6525 71.7675 12.825 72.06 12.9825 72.0675C13.14 72.075 13.3275 72.015 13.5075 72.015C14.3025 72.0075 14.715 71.745 16.965 70.7625L18.8175 70.0125C19.5998 69.718 20.353 69.3514 21.0675 68.9175C21.5725 68.6188 21.9692 68.167 22.2 67.6275C22.3125 67.2661 22.3125 66.879 22.2 66.5175C22.148 66.3706 22.0853 66.2278 22.0125 66.09C21.9348 65.965 21.8496 65.8448 21.7575 65.73C21.5085 65.4419 21.1659 65.2507 20.79 65.19C20.543 65.1425 20.2914 65.1224 20.04 65.13C19.6068 65.1558 19.1758 65.2109 18.75 65.295C17.9595 65.4515 17.1783 65.6518 16.41 65.895C15.36 66.2775 14.505 66.75 13.5825 67.14C13.1469 67.3378 12.6984 67.5057 12.24 67.6425C12.048 67.7062 11.8491 67.7465 11.6475 67.7625C11.6228 67.7666 11.5979 67.7689 11.5729 67.7694C11.5727 67.8022 11.575 67.835 11.58 67.8675H11.52C11.4225 67.9125 11.415 67.9125 11.385 67.9425C11.355 67.9725 11.385 67.9425 11.43 67.8675C11.4491 67.8344 11.4642 67.7992 11.475 67.7625C11.5074 67.7678 11.5402 67.7701 11.5729 67.7694C11.5731 67.7395 11.5755 67.7097 11.58 67.68C11.6128 67.5146 11.671 67.3552 11.7525 67.2075C11.9749 66.862 12.2659 66.5659 12.6075 66.3375C13.3741 65.8139 14.2235 65.4234 15.12 65.1825C15.4185 65.1002 15.7215 65.035 16.0275 64.9875C16.3725 64.92 16.725 64.8675 17.0775 64.7625C17.881 64.6084 18.6261 64.2346 19.23 63.6825C19.4253 63.4702 19.5646 63.2123 19.635 62.9325C19.7014 62.6268 19.6753 62.3083 19.56 62.0175C19.4532 61.7629 19.2949 61.5331 19.095 61.3425C18.8644 61.1036 18.561 60.948 18.2325 60.9C17.4792 60.8509 16.7226 60.9013 15.9825 61.05C14.8425 61.2525 13.7775 61.5975 12.75 61.86L11.9175 62.1075L11.1675 62.3325C10.9242 62.428 10.6648 62.4716 10.4057 62.4618C10.3181 62.5162 10.232 62.5731 10.1475 62.6325C10.1475 62.6325 10.08 62.6775 10.08 62.685C10.08 62.6925 10.08 62.7375 9.96 62.6325C9.90625 62.5978 9.84828 62.57 9.7875 62.55H9.7125C10.1925 62.25 10.0275 62.4225 10.125 62.43C10.218 62.4477 10.3118 62.4582 10.4057 62.4618C10.7058 62.2755 11.0238 62.1191 11.355 61.995L12.1425 61.68L13.4025 61.2C14.25 60.87 15.0525 60.5325 15.75 60.2025C16.6453 59.8103 17.4158 59.1799 17.9775 58.38C18.09 58.2098 18.1665 58.0184 18.2025 57.8175C18.2362 57.5626 18.1999 57.3034 18.0975 57.0675C18.0015 56.8693 17.8631 56.6946 17.692 56.5559C17.5209 56.4172 17.3213 56.3179 17.1075 56.265C16.7594 56.177 16.4015 56.1342 16.0425 56.1375C15.4947 56.1453 14.9492 56.2107 14.415 56.3325C13.7025 56.49 12.8325 56.7675 12 57C11.631 57.1338 11.2555 57.2489 10.875 57.345C10.7462 57.3721 10.616 57.3921 10.485 57.405H10.1775C9.90173 57.4288 9.62398 57.3982 9.36 57.315C9.29896 57.2951 9.2431 57.2619 9.19642 57.2178C9.19414 57.2156 9.19188 57.2135 9.18965 57.2113C9.1408 57.2371 9.09257 57.2642 9.045 57.2925H9.0075C8.95083 57.2461 8.88766 57.2082 8.82 57.18L8.73 57.135H8.805C8.88 57.135 9.1275 57 9.09 57.06C9.11225 57.1169 9.14622 57.1684 9.18965 57.2113C9.38276 57.1089 9.58549 57.0256 9.795 56.9625C11.13 56.505 12.7425 56.25 14.34 55.89C14.745 55.785 15.15 55.6725 15.5625 55.5375C16.2557 55.3304 16.9025 54.9918 17.4675 54.54C17.673 54.3291 17.8247 54.0719 17.91 53.79C17.9625 53.64 17.9625 53.4825 17.9625 53.3325L17.8575 52.8825C17.7675 52.5741 17.6077 52.2906 17.3905 52.0539C17.1733 51.8171 16.9045 51.6336 16.605 51.5175C16.2593 51.3599 15.8971 51.2417 15.525 51.165C15.4288 51.1427 15.331 51.1277 15.2325 51.12H15.0375H14.6925C14.2529 51.0939 13.8121 51.0939 13.3725 51.12C12.51 51.15 11.6625 51.2625 10.9125 51.33C9.4284 51.4102 8.00225 51.9326 6.8175 52.83C6.1275 53.4375 6.135 53.7375 7.065 53.58C8.57404 53.2656 10.1025 53.0526 11.64 52.9425C12.4013 52.8406 13.1673 52.778 13.935 52.755C14.2906 52.7459 14.6464 52.7609 15 52.8C15.1852 52.8118 15.3662 52.8603 15.5325 52.9425C15.5986 52.9714 15.658 53.0137 15.707 53.0666C15.7561 53.1195 15.7937 53.1819 15.8175 53.25C15.9 53.3925 15.7725 53.535 15.6525 53.595C15.5258 53.667 15.3927 53.7273 15.255 53.775L15 53.85L14.5425 54L10.905 54.75C10.1903 54.8877 9.48795 55.0833 8.805 55.335C8.38485 55.5096 8.00273 55.7643 7.68 56.085C7.44737 56.3103 7.28795 56.6004 7.2225 56.9175C7.16859 57.2486 7.22387 57.5882 7.38 57.885C7.61383 58.3635 8.00981 58.7435 8.4975 58.9575C8.91986 59.1347 9.37459 59.2215 9.8325 59.2125C10.217 59.21 10.6006 59.1774 10.98 59.115L11.4075 59.0325C11.7907 58.9225 12.1819 58.8422 12.5775 58.7925C12.6592 58.7888 12.7394 58.8155 12.8025 58.8675C12.8323 58.9076 12.8484 58.9563 12.8484 59.0063C12.8484 59.0563 12.8323 59.1049 12.8025 59.145C12.6533 59.3129 12.4616 59.4373 12.2475 59.505L10.8825 60.045C10.3144 60.2472 9.76484 60.4981 9.24 60.795C8.82541 61.0346 8.48333 61.3819 8.25 61.8C8.15487 61.9894 8.09876 62.196 8.085 62.4075C8.06885 62.6394 8.10208 62.872 8.1825 63.09C8.25695 63.2622 8.35 63.4256 8.46 63.5775C8.5425 63.675 8.64 63.7725 8.73 63.8625C9.12792 64.2075 9.62914 64.4107 10.155 64.44C10.5377 64.4611 10.9214 64.4283 11.295 64.3425C11.955 64.1925 12.435 63.9975 12.885 63.9C14.0025 63.63 15.0225 63.3 16.005 63.0975C16.4688 62.9923 16.9403 62.9246 17.415 62.895H18.0525C18.0575 62.8546 18.0611 62.8305 18.0637 62.8183C18.0687 62.6827 18.079 62.4502 18.0979 62.0693C18.1001 62.0242 18.1025 61.9769 18.105 61.9275V61.995Z" fill="#485B57"/>
<path d="M86.325 19.8525C86.3793 19.8148 86.4253 19.7663 86.46 19.71C86.469 19.6968 86.4745 19.6816 86.4763 19.6657C86.478 19.6499 86.4758 19.6338 86.4698 19.619C86.4639 19.6042 86.4545 19.5911 86.4423 19.5808C86.4301 19.5705 86.4156 19.5634 86.4 19.56C86.3324 19.534 86.2576 19.534 86.19 19.56L86.0925 19.5975L85.8375 19.7475C85.648 19.8727 85.4652 20.0079 85.29 20.1525C84.5382 20.7872 83.8545 21.4986 83.25 22.275C82.5902 23.185 81.8551 24.038 81.0525 24.825C80.6875 25.1821 80.2639 25.4739 79.8 25.6875C79.6292 25.7492 79.4536 25.7968 79.275 25.83C79.0465 25.8668 78.8135 25.8668 78.585 25.83C78.3482 25.7524 78.1272 25.633 77.9325 25.4775C77.6986 25.2746 77.5181 25.0173 77.407 24.7283C77.2958 24.4392 77.2574 24.1273 77.295 23.82C77.3305 23.5236 77.4062 23.2334 77.52 22.9575C77.7257 22.5291 77.9772 22.1242 78.27 21.75C78.807 21.0793 79.3856 20.443 80.0025 19.845C80.295 19.545 80.565 19.305 80.8125 19.0275C81.06 18.75 81.345 18.435 81.5625 18.135C82.0673 17.5619 82.5262 16.95 82.935 16.305C83.117 16.0232 83.2655 15.7212 83.3775 15.405C83.4092 15.3 83.4294 15.1918 83.4375 15.0825C83.4375 15 83.4375 15.015 83.4375 15H83.745C83.745 15 83.745 15 83.745 15.06C83.7375 15.0996 83.7375 15.1403 83.745 15.18H83.6925H83.5875C83.3865 15.2681 83.1974 15.3816 83.025 15.5175C82.6129 15.8365 82.2267 16.1876 81.87 16.5675C81.12 17.3175 80.37 18.18 79.62 19.02L78.4125 20.415C77.9458 20.9589 77.4448 21.4725 76.9125 21.9525C76.6106 22.2485 76.254 22.4828 75.8625 22.6425C75.6897 22.7076 75.5071 22.7431 75.3225 22.7475C75.1274 22.7196 74.9361 22.6693 74.7525 22.5975C74.3813 22.4609 74.0723 22.1945 73.8825 21.8475C73.7165 21.492 73.6616 21.0947 73.725 20.7075C73.8154 20.1579 73.9926 19.6263 74.25 19.1325C74.4675 18.69 74.64 18.3825 74.8575 18.0225C75.27 17.3325 75.7125 16.68 76.1475 16.0425C76.5825 15.405 77.0175 14.7675 77.415 14.145C77.6025 13.83 77.805 13.5225 77.97 13.2225C78.1245 12.9648 78.2431 12.6872 78.3225 12.3975C78.42 12.1725 78.36 12.0375 78.4875 11.9325C78.615 11.8275 78.9525 11.835 79.2375 12.36C79.4669 13.026 79.4826 13.7471 79.2825 14.4225C79.0558 15.2513 78.6934 16.037 78.21 16.7475L76.9125 18.705L76.32 19.65C76.095 20.04 76.0875 20.0625 76.0875 20.055C76.0875 20.0475 76.0875 20.055 76.0875 20.055C76.0875 20.055 76.0875 20.055 76.1925 19.965C77.2275 18.8925 78.2475 17.6475 79.335 16.455C79.8901 15.8336 80.4785 15.2427 81.0975 14.685C81.4347 14.3791 81.7958 14.1007 82.1775 13.8525C82.4128 13.698 82.6643 13.5698 82.9275 13.47C83.2986 13.3206 83.7048 13.2816 84.0975 13.3575C84.2487 13.4051 84.3965 13.4628 84.54 13.53L84.6825 13.605L84.795 13.74C85.0948 14.11 85.2495 14.5766 85.23 15.0525C85.2166 15.3937 85.1483 15.7305 85.0275 16.05C84.8309 16.5607 84.5794 17.0485 84.2775 17.505C83.7259 18.3464 83.1196 19.1506 82.4625 19.9125C82.1625 20.2725 81.765 20.7075 81.4425 21.03C81.12 21.3525 80.775 21.705 80.4675 22.05C80.1657 22.3741 79.8851 22.7173 79.6275 23.0775C79.4312 23.335 79.2861 23.6278 79.2 23.94C79.2 23.9775 79.2 23.9775 79.2 23.9925C79.2 24.0075 79.3125 23.88 79.2 23.9925C79.2 23.9925 79.11 24.12 79.1175 24.105C79.1175 24.105 79.1175 24.18 79.1175 24.105C79.1254 24.0427 79.1254 23.9797 79.1175 23.9175C79.4776 23.7463 79.8011 23.5069 80.07 23.2125C80.7835 22.4473 81.4545 21.6436 82.08 20.805C82.7921 19.9108 83.6135 19.1096 84.525 18.42C84.7641 18.239 85.0146 18.0737 85.275 17.925C85.626 17.7208 86.005 17.5692 86.4 17.475C86.7653 17.3768 87.1469 17.3548 87.521 17.4103C87.8952 17.4658 88.2539 17.5975 88.575 17.7975C88.7562 17.9226 88.9045 18.0894 89.0077 18.2839C89.1108 18.4784 89.1656 18.6948 89.1675 18.915C89.1608 19.3672 89.0283 19.8087 88.785 20.19C88.657 20.4005 88.5168 20.6034 88.365 20.7975L88.1325 21.0975L87.93 21.315C87.675 21.6075 87.45 21.8325 87.18 22.065C86.1975 23.01 85.17 23.865 84.18 24.7275C83.4358 25.3041 82.7545 25.9578 82.1475 26.6775C82.0288 26.8451 81.9258 27.0233 81.84 27.21C81.809 27.2751 81.7839 27.3429 81.765 27.4125C81.72 27.4575 81.8625 27.4125 81.6225 27.4125C81.555 27.4125 81.54 27.4125 81.4875 27.4125C81.435 27.4125 81.405 27.4575 81.42 27.4125C81.4532 27.3825 81.4767 27.3433 81.4875 27.3C81.4875 27.3 81.4875 27.2325 81.5325 27.1275C81.5775 27.0225 81.5325 27.1275 81.5325 27.09C81.5974 27.0952 81.6626 27.0952 81.7275 27.09C81.8263 27.0674 81.924 27.0399 82.02 27.0075L82.2825 26.9175C82.454 26.8129 82.617 26.695 82.77 26.565L83.3325 26.0925L84.465 25.11C85.215 24.45 85.965 23.7975 86.82 23.1825C87.1458 22.9344 87.4864 22.7065 87.84 22.5C88.2277 22.2473 88.6567 22.0645 89.1075 21.96C89.4618 21.8806 89.8331 21.9425 90.1425 22.1325C90.4451 22.3456 90.6524 22.6686 90.72 23.0325C90.7561 23.1595 90.7762 23.2905 90.78 23.4225C90.7879 23.4922 90.7879 23.5627 90.78 23.6325C90.7878 23.7323 90.7878 23.8326 90.78 23.9325C90.7025 24.1968 90.5889 24.4491 90.4425 24.6825C89.9946 25.3497 89.4929 25.9793 88.9425 26.565C88.41 27.135 87.87 27.6825 87.3375 28.23L85.965 29.67C85.3912 30.2983 84.7854 30.8966 84.15 31.4625C83.8585 31.7371 83.5104 31.9445 83.13 32.07C82.988 32.1391 82.8546 32.2247 82.7325 32.325C82.635 32.385 82.56 32.3775 82.485 32.2425C82.3944 32.0323 82.3683 31.8 82.41 31.575C82.5644 30.7931 82.9183 30.0645 83.4375 29.46C84.33 28.335 85.305 27.33 86.265 26.3175L87.69 24.8175C87.925 24.5725 88.1425 24.3225 88.3425 24.0675C88.5155 23.8677 88.6687 23.6517 88.8 23.4225V23.385L88.9125 23.4375C89.0475 23.505 89.28 23.535 89.3625 23.5725L89.5275 23.61H88.7775C88.7738 23.5776 88.7738 23.5449 88.7775 23.5125C88.8897 23.4847 88.9999 23.4496 89.1075 23.4075C89.4525 23.3475 89.6175 23.07 89.535 23.2125C89.5152 23.2557 89.5001 23.301 89.49 23.3475C89.49 23.4 89.49 23.4525 89.49 23.5725C89.4749 23.6719 89.4749 23.773 89.49 23.8725C89.49 23.8725 89.49 24.0525 89.49 24.03C89.2929 24.0984 89.1042 24.189 88.9275 24.3C88.6875 24.4425 88.4175 24.6375 88.1775 24.825C87.12 25.575 86.07 26.565 84.975 27.5325L84.3525 28.0725L84.0075 28.3575L83.8125 28.5075L83.7075 28.59L83.5425 28.695C83.3379 28.8229 83.1189 28.9261 82.89 29.0025C82.7132 29.0655 82.5329 29.1181 82.35 29.16C82.1044 29.2202 81.8529 29.2529 81.6 29.2575C81.3952 29.2512 81.1916 29.2235 80.9925 29.175C80.8404 29.1272 80.6944 29.0617 80.5575 28.98C80.3992 28.8957 80.259 28.781 80.145 28.6425C79.9129 28.3803 79.7595 28.0579 79.7025 27.7125C79.6919 27.6002 79.6919 27.4872 79.7025 27.375C79.6933 27.2777 79.6933 27.1797 79.7025 27.0825C79.737 26.8239 79.8077 26.5714 79.9125 26.3325C80.0581 25.9919 80.2391 25.6677 80.4525 25.365C80.6498 25.0773 80.8706 24.8063 81.1125 24.555C81.3375 24.3225 81.5475 24.1275 81.7575 23.9325C82.605 23.1825 83.4225 22.5 84.2175 21.8025C84.615 21.4575 84.9675 21.105 85.3725 20.7525L85.9125 20.2275L86.1675 19.9575L86.3625 19.74L86.325 19.8525Z" fill="#FFA07A"/>
<path d="M41.0775 42.9075C42 40.9725 42.99 39.0525 44.0775 37.185C44.3625 36.705 44.5875 36.285 44.94 35.76C45.2939 35.2595 45.7125 34.8081 46.185 34.4175C47.0486 33.701 47.9749 33.0634 48.9525 32.5125C50.3325 31.71 51.72 30.975 53.1375 30.315C55.6425 29.145 58.17 28.065 60.675 27C61.92 26.4525 63.1575 25.89 64.365 25.29C65.5688 24.7098 66.7205 24.0273 67.8075 23.25C69.6231 21.7103 71.279 19.9917 72.75 18.12C73.725 16.9275 74.655 15.6975 75.6075 14.4675C76.095 13.86 76.56 13.2375 77.1075 12.66C77.655 12.0825 78.165 11.5125 78.7275 10.965C79.425 10.2825 79.4775 10.5 79.1175 11.28C78.945 11.6625 78.69 12.2025 78.3675 12.84C78.2025 13.155 78.0375 13.5 77.8275 13.845C77.6175 14.19 77.37 14.5425 77.0775 14.9025C75.242 17.5272 73.2166 20.0139 71.0175 22.3425C70.4475 22.92 69.855 23.475 69.24 24.015C68.5988 24.5791 67.9057 25.0813 67.17 25.515C65.7651 26.3336 64.3125 27.0674 62.82 27.7125C59.3175 29.2875 55.6875 30.885 52.23 32.6025C50.3457 33.4666 48.581 34.5707 46.98 35.8875C46.6257 36.2035 46.3199 36.5699 46.0725 36.975L45.3 38.3175C44.7675 39.2325 44.265 40.17 43.8 41.115C42.5925 43.4475 41.505 45.8475 40.425 48.2475C39.5929 50.0362 38.9081 51.8899 38.3775 53.79C38.145 54.735 37.8525 55.755 38.3175 56.2425C38.7825 56.73 39.6975 56.7675 40.515 56.355C41.8017 55.6401 42.9437 54.6913 43.8825 53.5575C44.8664 52.4503 45.7288 51.2409 46.455 49.95C46.7775 49.3875 47.055 48.81 47.3325 48.2175C47.8425 47.1225 48.0825 46.3725 48.3375 45.8625C48.5031 45.4835 48.7399 45.1398 49.035 44.85C49.132 44.7443 49.2374 44.6465 49.35 44.5575C49.515 44.46 49.5975 44.6775 49.62 45.165C49.6143 45.897 49.4928 46.6235 49.26 47.3175C48.3471 50.1009 46.8514 52.6577 44.8725 54.8175C43.8441 55.9976 42.6184 56.9899 41.25 57.75C40.8414 57.9556 40.4078 58.1068 39.96 58.2C39.7136 58.2524 39.4618 58.275 39.21 58.2675H38.7975C38.6553 58.2355 38.5151 58.1954 38.3775 58.1475C38.1045 58.0638 37.85 57.9289 37.6275 57.75C37.3736 57.584 37.1545 57.37 36.9825 57.12C36.65 56.6275 36.4844 56.0412 36.51 55.4475C36.5203 54.8081 36.6008 54.1718 36.75 53.55C36.885 53.0025 37.035 52.4625 37.2075 51.93C37.545 50.8725 37.9575 49.8375 38.3625 48.825C39.2175 46.8075 40.095 44.8725 41.01 42.8925L41.0775 42.9075Z" fill="#485B57"/>
<path d="M74.52 42.3C75.7725 40.4625 77.085 38.6775 78.42 36.9225C78.9075 36.2775 79.3575 35.61 79.8525 34.98C80.7225 33.87 81.6 32.73 82.53 31.6575C83.46 30.585 84.405 29.52 85.3725 28.4775C86.2275 27.555 87.09 26.6175 87.96 25.71C89.0322 24.4555 90.3295 23.4126 91.785 22.635C92.2725 22.41 92.31 22.7025 92.1 23.1675C91.7931 23.8158 91.3741 24.4048 90.8625 24.9075C88.575 27.0675 86.445 29.5125 84.2475 31.9275C82.92 33.3525 81.7725 35.0325 80.55 36.6375C79.215 38.3925 77.895 40.1625 76.6425 41.97C75.8925 43.08 75.1425 44.22 74.3925 45.36C73.32 47.1075 72.225 48.8625 71.28 50.67C70.53 52.0725 69.975 53.5125 69.3975 54.9525C69.2775 55.2675 69.165 55.5825 69.045 55.905C68.5875 57.09 68.34 57.405 67.8975 57.57C67.8079 57.6123 67.7152 57.6474 67.62 57.675C67.38 57.735 67.23 57.12 67.455 56.175C67.8102 54.744 68.2947 53.3483 68.9025 52.005C69.5175 50.6475 70.2225 49.3125 70.965 48.0075C72.075 46.0725 73.215 44.1675 74.475 42.285L74.52 42.3Z" fill="#485B57"/>
<path d="M25.3425 49.2976C23.5575 49.6876 21.77 50.0601 19.98 50.4151C19.32 50.5426 18.675 50.7076 18.0225 50.8276C15.7125 51.2401 13.395 51.5776 11.0775 51.9751C10.05 52.1326 9.0225 52.3201 8.0025 52.4926C7.35 52.6126 6.69 52.7101 6.03 52.8001C5.36053 52.8375 4.68948 52.8375 4.02 52.8001C3.6075 52.8001 3.6525 52.6651 3.9825 52.4776C4.14 52.3726 4.3875 52.2976 4.665 52.1101L5.115 51.8326C5.19 51.7801 5.28 51.7501 5.3625 51.6826L5.6325 51.6226C8.265 51.1426 10.92 50.7526 13.605 50.3626C15.2175 50.1451 16.86 49.7326 18.48 49.3876C20.265 49.0026 22.045 48.5976 23.82 48.1726L27.0975 47.3551C28.7475 46.9276 30.4125 46.5226 32.055 46.0726C33.33 45.7276 34.56 45.3226 35.85 44.9851C36.135 44.9101 36.4125 44.8276 36.7125 44.7751C37.8075 44.5726 38.3325 44.7751 38.4975 45.2551C38.5431 45.3408 38.5687 45.4356 38.5725 45.5326C38.5725 45.6526 38.4375 45.7051 38.2875 45.8401C38.0705 46.0095 37.811 46.1158 37.5375 46.1476C36.495 46.3876 35.355 46.7476 34.2075 47.0626L30.705 48.0001C28.9425 48.4651 27.1425 48.8701 25.35 49.3051L25.3425 49.2976Z" fill="#485B57"/>
<path d="M69.6225 64.8376C69.6225 64.7551 69.675 64.6576 69.705 64.5676C69.735 64.4776 69.705 64.3426 69.705 64.3351C69.705 64.3276 69.705 64.3351 69.6525 64.1551C69.572 63.9899 69.4819 63.8296 69.3825 63.6751C69.1725 63.3451 68.925 63.0001 68.6325 62.6701C68.115 61.9876 67.5525 61.3276 66.975 60.6751C66.3975 60.0226 65.955 59.6101 65.475 59.0626C63.75 57.1351 61.9275 55.2676 60 53.4526C59.1525 52.6276 58.3125 51.8176 57.4425 51.0826C56.3345 50.1763 55.1585 49.3564 53.925 48.6301C53.55 48.3751 53.6175 48.2476 54.09 48.1201C54.4545 48.0173 54.8362 47.9903 55.2115 48.0406C55.5868 48.0909 55.9479 48.2175 56.2725 48.4126C57.6349 49.2284 58.8939 50.2054 60.0225 51.3226L61.6725 52.8751C62.2425 53.4001 62.775 53.9551 63.3 54.5251C64.56 55.8826 65.985 57.1651 67.2825 58.5451C68.0325 59.2951 68.6925 60.0451 69.3675 60.8776C69.705 61.2826 70.035 61.6951 70.35 62.1226C70.6985 62.5705 71.0001 63.053 71.25 63.5626C71.3561 63.7985 71.4123 64.0539 71.415 64.3126C71.3844 64.9608 71.2096 65.594 70.9034 66.1662C70.5972 66.7383 70.1673 67.235 69.645 67.6201C69.2353 67.9505 68.787 68.2301 68.31 68.4526C67.8202 68.7032 67.2892 68.8633 66.7425 68.9251C66.4535 68.9588 66.1615 68.9588 65.8725 68.9251C65.618 68.863 65.3675 68.7854 65.1225 68.6926C64.6382 68.4901 64.1758 68.2388 63.7425 67.9426C63.0928 67.5322 62.4714 67.0787 61.8825 66.5851C61.2991 66.1148 60.7408 65.6141 60.21 65.0851C59.985 64.8451 59.76 64.6126 59.55 64.3351C58.7325 63.4276 58.74 62.9176 58.8 62.5351C58.8058 62.4462 58.8209 62.3583 58.845 62.2726C58.845 62.1601 59.0175 62.1676 59.25 62.2726C59.5923 62.388 59.9139 62.5577 60.2025 62.7751L61.7025 64.0126C62.1975 64.4401 62.685 64.8751 63.2025 65.2726C63.72 65.6701 64.2075 66.0601 64.7025 66.3826C65.1381 66.6939 65.6257 66.9251 66.1425 67.0651C66.225 67.1026 66.285 67.0651 66.36 67.0651C66.435 67.0651 66.5025 67.0651 66.555 67.0651C66.6122 67.0574 66.6703 67.0574 66.7275 67.0651C66.8166 67.0461 66.9043 67.021 66.99 66.9901C67.3817 66.8626 67.7569 66.6889 68.1075 66.4726C68.7841 66.1172 69.3148 65.536 69.6075 64.8301L69.6225 64.8376Z" fill="#485B57"/>
<path d="M58.35 70.1476C59.0408 70.6814 59.7969 71.125 60.6 71.4676C60.8761 71.5613 61.1596 71.6316 61.4475 71.6776C61.8738 71.7976 62.329 71.7603 62.73 71.5726C63.2525 71.2948 63.7539 70.9789 64.23 70.6276C64.6407 70.3221 65.0046 69.9583 65.31 69.5476C65.6591 69.0228 65.9796 68.4795 66.27 67.9201C66.3675 67.7476 66.615 67.8151 66.8325 68.0701C66.9663 68.23 67.0588 68.4203 67.1019 68.6243C67.1451 68.8282 67.1376 69.0397 67.08 69.2401C66.7848 70.002 66.3236 70.6886 65.73 71.2501C65.1848 71.7897 64.56 72.2424 63.8775 72.5926C63.4167 72.8858 62.9095 73.0988 62.3775 73.2226C61.8578 73.3282 61.3222 73.3282 60.8025 73.2226C59.8043 72.9722 58.854 72.5592 57.99 72.0001C57.465 71.6776 56.97 71.3251 56.49 70.9651C55.74 70.4176 55.065 69.8101 54.3675 69.2326C53.8275 68.7826 53.2425 68.3851 52.7025 67.9126C52.5755 67.8186 52.4552 67.7158 52.3425 67.6051C51.93 67.1776 51.915 66.9301 52.245 66.5326C52.32 66.4426 52.395 66.3451 52.4775 66.2626C52.6069 66.1338 52.7789 66.0566 52.9612 66.0456C53.1434 66.0345 53.3235 66.0903 53.4675 66.2026C54.4489 66.8897 55.3835 67.6413 56.265 68.4526C56.9376 69.0569 57.6437 69.6228 58.38 70.1476H58.35Z" fill="#485B57"/>
<path d="M52.14 74.5651C52.8676 75.1275 53.6519 75.6126 54.48 76.0126C54.7658 76.1291 55.0589 76.2268 55.3575 76.3051C55.5812 76.3752 55.8132 76.4155 56.0475 76.4251C56.1373 76.4334 56.2277 76.4334 56.3175 76.4251C56.43 76.4251 56.5875 76.3201 56.715 76.2751C57.268 76.0686 57.7942 75.7967 58.2825 75.4651C58.6992 75.1686 59.0598 74.8003 59.3475 74.3776C59.6738 73.8397 59.9427 73.2691 60.15 72.6751C60.21 72.5176 60.51 72.4951 60.8025 72.7276C60.9794 72.8715 61.1109 73.0634 61.1814 73.2802C61.2519 73.4971 61.2584 73.7296 61.2 73.9501C60.9389 74.7784 60.4534 75.5182 59.7975 76.0876C59.2005 76.6384 58.5062 77.0733 57.75 77.3701L57.09 77.6401L56.9175 77.7151L56.685 77.7976C56.5275 77.8501 56.3775 77.8576 56.22 77.8951C55.6759 77.9384 55.1286 77.8773 54.6075 77.7151C53.6149 77.3696 52.6776 76.8821 51.825 76.2676C51.3075 75.9226 50.805 75.5176 50.325 75.1651C49.575 74.5876 48.8925 73.9501 48.1875 73.3426C47.6475 72.8626 47.055 72.4576 46.5375 71.9326C46.4175 71.8201 46.2975 71.7076 46.1925 71.5876C45.8025 71.1151 45.78 70.8376 46.035 70.5451C46.089 70.4678 46.1492 70.395 46.215 70.3276C46.4475 70.1326 46.77 70.1851 47.085 70.4251C48.0525 71.1226 48.9825 71.9701 49.9575 72.7876C50.7075 73.3951 51.4125 74.0026 52.2075 74.5351L52.14 74.5651Z" fill="#485B57"/>
<path d="M39.8475 72.8325C40.7925 73.695 41.7525 74.5575 42.765 75.3375C43.125 75.6375 43.515 75.8625 43.905 76.1475C44.554 76.6293 45.2274 77.0774 45.9225 77.49C46.604 77.8775 47.3396 78.1606 48.105 78.33C48.7797 78.4958 49.4802 78.5289 50.1675 78.4275C50.9726 78.2809 51.6929 77.8364 52.185 77.1825C52.3575 76.98 52.575 77.0925 52.68 77.4525C52.7452 77.7238 52.7334 78.008 52.6459 78.2729C52.5585 78.5379 52.3989 78.7733 52.185 78.9525C51.7124 79.3371 51.1498 79.5952 50.55 79.7025C49.9973 79.8136 49.4314 79.8439 48.87 79.7925C48.3456 79.7527 47.8259 79.6648 47.3175 79.53C47.0611 79.4683 46.8103 79.3855 46.5675 79.2825C46.3064 79.1902 46.0552 79.0722 45.8175 78.93C44.7288 78.346 43.6746 77.7 42.66 76.995C41.5725 76.245 40.545 75.3675 39.5475 74.4975C38.925 73.965 38.3325 73.4025 37.7325 72.855C36.8325 72.0075 35.9625 71.1225 35.1075 70.245C34.4325 69.5625 33.7425 68.925 33.09 68.2125C32.9475 68.0475 32.805 67.8975 32.67 67.725C32.175 67.0875 32.1525 66.7575 32.4075 66.4425C32.4596 66.3615 32.5199 66.2861 32.5875 66.2175C32.82 66.015 33.2025 66.1575 33.5325 66.5475C34.635 67.6875 35.835 68.91 37.065 70.1175C37.98 71.0175 38.9175 71.91 39.8775 72.7725L39.8475 72.8325Z" fill="#485B57"/>
<path d="M20.31 69.0751L23.7225 67.8901C24.1425 67.7476 24.54 67.5601 24.9675 67.4251C26.4675 66.9376 27.9675 66.5326 29.4675 66.1726C30.15 66.0226 30.8325 65.8351 31.5225 65.7001C31.9758 65.5957 32.4378 65.5329 32.9025 65.5126C33.3983 65.5172 33.8871 65.6298 34.335 65.8426C34.62 65.9926 34.4625 66.1951 34.1775 66.4126C33.8556 66.6801 33.4903 66.8906 33.0975 67.0351C31.56 67.2301 29.85 67.6651 28.1175 68.0401C27.0758 68.3252 26.0515 68.6708 25.05 69.0751L21.6375 70.2826L19.53 71.0326L16.335 72.1876C15.51 72.4951 14.7225 72.8851 13.86 73.1551C13.6684 73.2174 13.473 73.2675 13.275 73.3051C12.525 73.4401 12.195 73.3051 12.06 72.9151C12.02 72.832 11.9923 72.7436 11.9775 72.6526C11.9719 72.5798 11.9831 72.5067 12.0105 72.4391C12.0378 72.3714 12.0804 72.311 12.135 72.2626C12.2794 72.1395 12.4444 72.043 12.6225 71.9776C13.905 71.3926 15.405 70.8751 16.905 70.2901L20.2875 69.0301L20.31 69.0751Z" fill="#485B57"/>
<path d="M18.8475 62.64C18.3434 61.5954 17.9172 60.5149 17.5725 59.4075C17.4375 59.01 17.2875 58.6125 17.19 58.2C16.8359 56.728 16.7144 55.2096 16.83 53.7C16.875 53.04 16.9575 52.3725 17.0625 51.72C17.1323 51.2958 17.2326 50.8772 17.3625 50.4675C17.5091 50.0588 17.7247 49.6783 18 49.3425C18.165 49.125 18.42 49.3425 18.63 49.65C18.8698 50.0106 18.9832 50.4405 18.9525 50.8725C18.5335 52.3203 18.3214 53.8202 18.3225 55.3275C18.3518 56.2955 18.5262 57.2537 18.84 58.17C19.128 59.212 19.4966 60.2301 19.9425 61.215C20.22 61.83 20.5275 62.43 20.8575 63.015C21.3539 63.9091 21.9287 64.7574 22.575 65.55C23.0812 66.1344 23.6468 66.6648 24.2625 67.1325L24.6525 67.41C25.1175 67.77 25.14 67.9275 25.1025 68.3175C25.1025 68.4075 25.1025 68.505 25.1025 68.5875C25.1475 68.88 24.6375 69.045 24.0975 68.8125C23.3776 68.4613 22.7232 67.9895 22.1625 67.4175C21.6096 66.8691 21.1075 66.2716 20.6625 65.6325C19.9808 64.6795 19.3716 63.6766 18.84 62.6325L18.8475 62.64Z" fill="#485B57"/>
<path d="M79.3125 28.2C79.1288 27.7791 78.9132 27.3729 78.6675 26.985L78.3 26.3925L77.8575 25.845C77.6278 25.5755 77.377 25.3247 77.1075 25.095L76.47 24.435L75.765 23.835C75.2959 23.4183 74.7943 23.0396 74.265 22.7025C73.7869 22.4109 73.2851 22.16 72.765 21.9525C72.0825 21.7168 71.4224 21.4206 70.7925 21.0675C70.5975 20.9475 70.695 20.7075 70.965 20.505C71.133 20.3834 71.3244 20.298 71.527 20.2541C71.7297 20.2102 71.9393 20.2088 72.1425 20.25C72.5296 20.317 72.9089 20.4225 73.275 20.565C73.635 20.715 74.025 20.8725 74.355 21.0375C74.7165 21.1987 75.0629 21.392 75.39 21.615C75.7298 21.8234 76.0555 22.0539 76.365 22.305C76.7325 22.62 77.115 22.9125 77.5125 23.1975C77.91 23.4825 78.2625 23.8425 78.615 24.1725C78.9675 24.5025 79.365 24.9825 79.6725 25.4025C79.98 25.8225 80.3025 26.28 80.55 26.76C80.7 27.0525 80.865 27.345 81.0075 27.6375L81.39 28.5525C81.7393 29.4916 81.9907 30.4642 82.14 31.455C82.2907 32.2162 82.3735 32.9892 82.3875 33.765C82.3875 33.945 82.3875 34.1175 82.3875 34.29C82.3649 34.4287 82.3272 34.5645 82.275 34.695C82.2191 34.7885 82.1481 34.8721 82.065 34.9425C81.9251 35.055 81.7494 35.1135 81.57 35.1075C81.4852 35.1147 81.3999 35.1147 81.315 35.1075C81.0525 35.1075 80.8575 34.7625 80.7225 34.3575C80.5725 33.165 80.415 32.01 80.19 30.8175C80.0081 29.9281 79.7185 29.0642 79.3275 28.245L79.3125 28.2Z" fill="#485B57"/>
<path d="M78.6225 71.9175C78.5175 71.9175 78.5175 71.7825 78.6225 71.52C78.6726 71.4065 78.7383 71.3005 78.8175 71.205C78.8878 71.1677 78.9604 71.1352 79.035 71.1075C79.0725 71.1075 79.515 71.19 79.6725 71.1975C79.8148 71.2145 79.9538 71.2524 80.085 71.31C80.355 71.415 80.6325 71.4975 80.91 71.5875C80.9736 71.6079 81.0323 71.6411 81.0825 71.685C81.2626 71.8269 81.4777 71.9176 81.705 71.9475C81.7237 71.9568 81.7442 71.9616 81.765 71.9616C81.7858 71.9616 81.8064 71.9568 81.825 71.9475C82.0856 71.9409 82.3436 72.0002 82.575 72.12C82.7366 72.2606 82.907 72.3909 83.085 72.51C83.085 72.51 83.145 72.51 83.1525 72.585C83.16 72.66 83.2425 72.72 83.3025 72.75C83.3842 72.7922 83.4599 72.8452 83.5275 72.9075C83.5607 72.9648 83.5883 73.025 83.61 73.0875C83.6149 73.1728 83.5912 73.2573 83.5425 73.3275C83.49 73.3725 83.4975 73.4625 83.4825 73.5375V73.6125C83.2775 73.7197 83.0575 73.7955 82.83 73.8375L82.44 73.785L81.9825 73.74C81.9375 73.74 81.9 73.74 81.8625 73.6725L81.225 73.5525C81.1125 73.4925 80.9775 73.4925 80.895 73.3425C80.895 73.3425 80.8575 73.3425 80.8275 73.3425C80.6219 73.2679 80.4256 73.1697 80.2425 73.05C80.145 72.9975 80.04 72.96 79.935 72.915C79.83 72.87 79.935 72.915 79.89 72.87C79.845 72.825 79.89 72.825 79.83 72.8175C79.5825 72.72 79.3725 72.555 79.08 72.4725C79.02 72.4725 78.8175 72.2025 78.75 72.18C78.6825 72.1575 78.6675 71.91 78.6225 71.9175Z" fill="#FFA07A"/>
<path d="M69.1875 80.6475C69.0975 80.5725 69.2625 80.505 69.57 80.4375C69.7192 80.4149 69.8709 80.4149 70.02 80.4375C70.0977 80.4751 70.1728 80.5177 70.245 80.565C70.3427 80.7696 70.4278 80.98 70.5 81.195C70.5515 81.3366 70.5745 81.487 70.5675 81.6375C70.5675 81.9375 70.5675 82.2375 70.5675 82.53C70.5643 82.598 70.5464 82.6645 70.515 82.725C70.4139 82.9295 70.3698 83.1575 70.3875 83.385C70.3783 83.4023 70.3735 83.4216 70.3735 83.4413C70.3735 83.4609 70.3783 83.4802 70.3875 83.4975C70.4538 83.7431 70.4538 84.0019 70.3875 84.2475C70.2774 84.4243 70.1772 84.607 70.0875 84.795C70.0875 84.795 70.0875 84.8475 70.0275 84.8625C69.9675 84.8775 69.9 84.9675 69.885 85.0275C69.8632 85.1117 69.825 85.1907 69.7725 85.26C69.7725 85.26 69.6675 85.3275 69.6 85.365C69.5062 85.386 69.4089 85.386 69.315 85.365C69.2475 85.32 69.15 85.365 69.0675 85.365H69C68.8492 85.1963 68.7276 85.0037 68.64 84.795V84.4275C68.64 84.2475 68.64 84.0525 68.64 84.015C68.64 83.9775 68.64 83.9325 68.6925 83.895C68.745 83.8575 68.64 83.325 68.6475 83.31C68.655 83.295 68.6475 83.085 68.7675 82.9875C68.7723 82.9769 68.7747 82.9654 68.7747 82.9538C68.7747 82.9421 68.7723 82.9306 68.7675 82.92C68.7763 82.7285 68.8116 82.5392 68.8725 82.3575C68.88 82.2601 68.88 82.1624 68.8725 82.065V82.02C68.8782 81.9979 68.8782 81.9746 68.8725 81.9525C68.8989 81.7258 68.8989 81.4967 68.8725 81.27C68.8725 81.2175 69.0075 80.97 68.9925 80.91C68.9775 80.85 69.225 80.6775 69.1875 80.6475Z" fill="#FFA07A"/>
<path d="M23.79 26.3625C23.685 26.3625 23.7 26.235 23.79 26.0025C23.8303 25.8964 23.8915 25.7995 23.97 25.7175C24.0338 25.6817 24.1018 25.654 24.1725 25.635C24.1725 25.635 24.6225 25.74 24.7725 25.77C24.9085 25.7949 25.0384 25.8458 25.155 25.92L25.905 26.3175C25.9593 26.3487 26.0075 26.3893 26.0475 26.4375C26.1875 26.6021 26.365 26.7307 26.565 26.8125C26.565 26.8125 26.625 26.8125 26.67 26.8125C26.9008 26.8792 27.1136 26.9972 27.2925 27.1575C27.405 27.3225 27.5325 27.465 27.66 27.6225C27.66 27.6225 27.705 27.6225 27.705 27.6975C27.705 27.7725 27.75 27.84 27.795 27.885C27.8574 27.9377 27.9129 27.9982 27.96 28.065C27.9692 28.1272 27.9692 28.1903 27.96 28.2525C27.9438 28.3336 27.9017 28.4073 27.84 28.4625C27.78 28.4625 27.765 28.575 27.7275 28.6425V28.71C27.5239 28.744 27.3161 28.744 27.1125 28.71L26.79 28.5675L26.4075 28.4175C26.37 28.4175 26.3475 28.3575 26.325 28.3275C26.3025 28.2975 25.8075 28.1175 25.7925 28.095C25.7775 28.0725 25.59 28.005 25.5525 27.855C25.5525 27.855 25.5525 27.855 25.5075 27.8025C25.345 27.7019 25.1941 27.5837 25.0575 27.45C24.9798 27.3882 24.897 27.333 24.81 27.285C24.81 27.285 24.81 27.285 24.81 27.24C24.7994 27.2171 24.784 27.1966 24.765 27.18C24.5812 27.0421 24.3883 26.9168 24.1875 26.805C24.1425 26.805 23.985 26.55 23.925 26.5275C23.865 26.505 23.8275 26.355 23.79 26.3625Z" fill="#FFA07A"/>
<path d="M37.4475 15C37.38 14.865 37.575 14.7975 37.92 14.7675C38.0826 14.7668 38.2435 14.8 38.3925 14.865C38.4691 14.9424 38.537 15.0279 38.595 15.12C38.595 15.165 38.655 15.87 38.6775 16.1175C38.6949 16.3463 38.6772 16.5765 38.625 16.8L38.4075 18.15C38.3933 18.2503 38.3602 18.347 38.31 18.435C38.1618 18.7473 38.0801 19.0869 38.07 19.4325C38.0576 19.4609 38.0512 19.4915 38.0512 19.5225C38.0512 19.5534 38.0576 19.5841 38.07 19.6125C38.0918 19.9886 38.0539 20.3658 37.9575 20.73C37.818 21.0048 37.6952 21.2878 37.59 21.5775C37.59 21.6225 37.59 21.6675 37.53 21.6975C37.47 21.7275 37.395 21.87 37.3725 21.96C37.349 22.0879 37.3138 22.2134 37.2675 22.335C37.2196 22.4081 37.1586 22.4717 37.0875 22.5225C36.9962 22.56 36.8938 22.56 36.8025 22.5225C36.735 22.4625 36.6375 22.5225 36.555 22.5225C36.5226 22.5262 36.4899 22.5262 36.4575 22.5225C36.2863 22.2474 36.155 21.9494 36.0675 21.6375L36 20.3325C36.0042 20.2625 36.0276 20.1951 36.0675 20.1375C36.0675 20.1 36.0675 19.1925 36.0675 19.155C36.1125 18.975 36.0675 18.78 36.255 18.6225C36.2696 18.5864 36.2696 18.546 36.255 18.51C36.3094 18.1964 36.3896 17.8878 36.495 17.5875C36.5354 17.4317 36.568 17.274 36.5925 17.115C36.6029 17.0875 36.6182 17.0621 36.6375 17.04C36.658 17.0065 36.6755 16.9714 36.69 16.935C36.7848 16.5697 36.8574 16.199 36.9075 15.825C36.9075 15.735 37.1475 15.36 37.1475 15.2625C37.1475 15.165 37.5 15.0675 37.4475 15Z" fill="#FFA07A"/>
<path d="M47.79 51.555C47.43 52.095 47.04 52.62 46.635 53.1225C46.4925 53.31 46.3425 53.49 46.185 53.67C45.625 54.2827 45.0262 54.8589 44.3925 55.395L43.5525 56.145C43.1911 56.4405 42.8046 56.704 42.3975 56.9325C42.27 57 42.2475 56.9325 42.3075 56.8125C42.4008 56.6194 42.5307 56.4462 42.69 56.3025C43.0275 55.965 43.38 55.665 43.7325 55.365C44.085 55.065 44.4375 54.75 44.7825 54.4275C45.1954 54.0305 45.5766 53.6017 45.9225 53.145C46.3224 52.6642 46.6979 52.1636 47.0475 51.645C47.265 51.3225 47.475 50.985 47.67 50.6475C47.9672 50.1356 48.2351 49.6073 48.4725 49.065C48.645 48.6375 48.78 48.21 48.9225 47.7825L49.0125 47.4975C49.1475 47.1525 49.2375 47.0625 49.395 47.025H49.5C49.605 47.025 49.6425 47.1975 49.605 47.4825C49.5336 47.9046 49.4308 48.3207 49.2975 48.7275C49.1501 49.1379 48.9773 49.5387 48.78 49.9275C48.4889 50.5186 48.1633 51.0921 47.805 51.645L47.79 51.555Z" fill="#485B57"/>
</svg>
