<svg width="96" height="96" viewBox="0 0 96 96" fill="none" xmlns="http://www.w3.org/2000/svg">
<path fill-rule="evenodd" clip-rule="evenodd" d="M16.7659 43.904C16.7202 43.8993 16.674 43.9038 16.63 43.9173C16.5861 43.9307 16.5452 43.9528 16.5099 43.9822C16.4746 44.0116 16.4456 44.0478 16.4244 44.0886C16.4033 44.1294 16.3905 44.174 16.3869 44.2199L16.3866 44.2231L16.3866 44.2231C16.3694 44.3999 16.3892 44.5021 16.4135 44.5559C16.4338 44.6009 16.456 44.6119 16.4776 44.6168C16.5092 44.624 16.5636 44.6211 16.6398 44.5909C16.7137 44.5617 16.7941 44.5121 16.8686 44.4486C16.9431 44.385 17.0062 44.3123 17.0492 44.2413C17.0933 44.1685 17.1089 44.1098 17.1083 44.0708C17.1079 44.0408 17.0988 44.016 17.0643 43.9898C17.0221 43.9576 16.9345 43.9194 16.7679 43.9042L16.7659 43.904ZM16.803 43.5309C16.7079 43.5213 16.6119 43.5307 16.5205 43.5586C16.4288 43.5866 16.3435 43.6327 16.2699 43.6941C16.1962 43.7555 16.1355 43.831 16.0914 43.9162C16.0476 44.0009 16.021 44.0934 16.0132 44.1884C15.9931 44.3972 16.0098 44.5731 16.0718 44.7104C16.138 44.8568 16.2525 44.9501 16.3941 44.9824C16.5258 45.0124 16.6612 44.9857 16.7777 44.9396C16.8964 44.8927 17.0117 44.8194 17.1119 44.7339C17.2123 44.6484 17.3033 44.5458 17.37 44.4355C17.4356 44.3272 17.4854 44.1986 17.4833 44.065C17.481 43.9222 17.4193 43.7887 17.2914 43.6913C17.1714 43.6 17.0054 43.5495 16.803 43.5309Z" fill="#C2CAC8"/>
<path d="M39.75 43.5C37.95 43.5 36.15 43.5 34.335 43.3275C32.4655 43.2134 30.6207 42.8424 28.8525 42.225C28.5741 42.1247 28.3055 41.9991 28.05 41.85C27.7418 41.6698 27.4528 41.4587 27.1875 41.22C26.9822 40.953 26.8341 40.6466 26.7525 40.32C26.6925 40.0425 26.67 39.87 26.6325 39.6525C26.5725 39.24 26.535 38.8425 26.4975 38.445C26.13 33.8025 26.0325 29.25 25.77 24.75C25.665 22.7325 25.5075 20.7075 25.3125 18.75C25.0575 16.185 24.705 13.6425 24.6075 11.07C24.57 10.275 24.825 10.32 25.2525 10.95C25.5364 11.3698 25.7871 11.8111 26.0025 12.27C26.2739 12.9043 26.4678 13.5691 26.58 14.25C27.2991 19.4697 27.6749 24.731 27.705 30C27.705 31.59 27.8175 33.21 27.93 34.83C28.0425 36.45 28.1625 38.1 28.3725 39.615L28.425 39.8925C28.425 39.9375 28.425 39.99 28.4925 40.0125C28.56 40.035 28.6425 40.1475 28.785 40.245C28.9275 40.3425 29.085 40.41 29.235 40.5075C29.3947 40.5979 29.56 40.678 29.73 40.7475C29.8981 40.8316 30.0739 40.8994 30.255 40.95C30.6261 41.0687 31.0043 41.1639 31.3875 41.235C31.7625 41.325 32.1375 41.385 32.55 41.445C34.151 41.6622 35.7643 41.7774 37.38 41.79C39.555 41.8275 41.745 41.79 43.9275 41.6325C47.235 41.4375 50.5575 41.1375 53.835 40.725C56.3775 40.4025 58.8525 39.975 61.335 39.54L62.985 39.2625C63.7246 39.1097 64.4816 39.0592 65.235 39.1125C65.6054 39.1219 65.9651 39.2392 66.27 39.45C66.3847 39.5193 66.4904 39.6024 66.585 39.6975C66.6825 39.84 66.525 39.9825 66.18 40.1325C65.6395 40.3527 65.0829 40.5307 64.515 40.665C60.0675 41.55 55.3125 42.2625 50.5125 42.765C46.9425 43.14 43.335 43.3875 39.7125 43.47L39.75 43.5Z" fill="#485B57"/>
<path d="M66.3225 27.675L66.3974 24.525C66.3974 24.1425 66.3974 23.775 66.3974 23.3775C66.3974 22.0275 66.4649 20.67 66.4499 19.3125C66.4499 18.7125 66.3749 18.1125 66.3449 17.52C66.25 16.7614 66.2223 15.9959 66.2624 15.2325C66.2624 14.9925 66.5625 14.9925 66.87 15.165C67.0544 15.2628 67.2163 15.3981 67.3455 15.5621C67.4746 15.7261 67.5681 15.9153 67.62 16.1175C67.9284 17.6698 68.0317 19.2558 67.9275 20.835C67.875 21.7875 68.0175 22.7625 68.0475 23.73C68.0775 24.6975 68.1075 25.86 68.1 26.925V28.89C68.1 29.88 68.1 30.8775 68.1 31.89C68.1 32.64 68.25 33.39 68.3025 34.185C68.3025 34.3575 68.3025 34.5225 68.3025 34.695C68.3025 35.34 68.0925 35.55 67.635 35.625C67.5337 35.6492 67.431 35.6667 67.3274 35.6775C66.9824 35.6775 66.7124 35.4075 66.5774 34.98C66.343 33.6229 66.2351 32.247 66.2549 30.87C66.2549 29.8125 66.2549 28.755 66.2549 27.705L66.3225 27.675Z" fill="#485B57"/>
<path d="M50.325 8.07C48.375 8.175 46.42 8.2975 44.46 8.43749C43.71 8.49 43.035 8.595 42.315 8.64C39.7875 8.82 37.2525 8.93999 34.7025 8.96249C33.5775 8.96249 32.4525 8.96249 31.3125 8.96249C30.5625 8.96249 29.865 8.96249 29.1375 8.86499C28.4111 8.78695 27.6947 8.63363 27 8.4075C26.565 8.265 26.6775 8.1 27.0825 7.96499C27.7051 7.77279 28.3511 7.6668 29.0025 7.64999C31.83 7.79999 34.7175 7.65 37.635 7.5375C39.3825 7.4925 41.1975 7.23749 42.99 7.05749C44.955 6.86999 46.935 6.68999 48.915 6.54749C50.1375 6.45749 51.36 6.39749 52.5825 6.33749C54.435 6.24749 56.3325 6.24 58.155 6.255C59.5875 6.255 61.005 6.25499 62.445 6.30749C62.76 6.30749 63.0675 6.345 63.39 6.3825C64.5675 6.5325 64.89 6.74999 65.0775 7.21499C65.1216 7.31864 65.1543 7.42678 65.175 7.5375C65.175 7.89 64.695 8.08499 63.87 8.04749C61.4025 7.96499 58.83 7.8675 56.2125 7.89C54.2625 7.89 52.305 7.97999 50.34 8.11499L50.325 8.07Z" fill="#485B57"/>
<path d="M59.25 20.0325C57.63 22.005 56.0925 24.075 54.6375 26.205C54.105 26.955 53.6475 27.8025 53.1375 28.59L51.6375 30.9525L50.8875 32.1525L49.71 34.05C49.473 34.3892 49.1562 34.6648 48.7875 34.8525C48.7536 34.8808 48.7134 34.9004 48.6703 34.9095C48.6271 34.9187 48.5824 34.9171 48.54 34.905C48.4529 34.8784 48.3697 34.8405 48.2925 34.7925C48.1219 34.6935 47.9634 34.5752 47.82 34.44C47.4577 34.0453 47.15 33.6039 46.905 33.1275C46.7625 32.88 46.62 32.6325 46.485 32.3775L46.1925 31.83C45.4955 30.5348 44.7216 29.2826 43.875 28.08C43.335 27.33 42.7725 26.58 42.18 25.905C41.6406 25.2335 41.0152 24.6359 40.32 24.1275C39.93 23.9025 39.9975 23.5125 40.665 23.3775C41.1645 23.3254 41.6693 23.3852 42.1428 23.5526C42.6163 23.7199 43.0466 23.9906 43.4025 24.345C44.8502 25.7662 46.1105 27.3667 47.1525 29.1075C47.415 29.52 47.67 29.9475 47.9025 30.3675L48.2775 30.9975C48.2775 31.0725 48.2775 31.0575 48.2775 31.065V31.14C48.2987 31.2391 48.3263 31.3368 48.36 31.4325C48.36 31.4325 48.4125 31.6125 48.4425 31.575L48.54 31.5225L48.6 31.47C48.6511 31.4235 48.6987 31.3734 48.7425 31.32L48.8175 31.2225L49.02 30.8775C49.3125 30.39 49.5975 29.895 49.89 29.3775C50.4675 28.395 51.0375 27.3975 51.66 26.4375C53.12 24.2125 54.65 22.04 56.25 19.92C57.24 18.6225 58.26 17.3475 59.325 16.11C60.9572 14.2202 62.7109 12.4389 64.575 10.7775C65.9867 9.42614 67.5466 8.23862 69.225 7.23747C69.6065 7.00673 70.0082 6.81093 70.425 6.65247C72.0225 6.05997 72.675 6.23997 73.065 6.83997C73.168 6.97113 73.2584 7.11176 73.335 7.25997C73.3793 7.39362 73.3807 7.53777 73.339 7.67226C73.2973 7.80674 73.2146 7.92483 73.1025 8.00997C72.7884 8.2748 72.4371 8.49212 72.06 8.65497C69.2102 10.1253 66.6228 12.0563 64.4025 14.37C62.5951 16.1746 60.8971 18.0855 59.3175 20.0925L59.25 20.0325Z" fill="#FFA07A"/>
<path d="M38.25 44.325C36.592 44.3046 34.9367 44.1869 33.2925 43.9725C31.6099 43.762 29.9614 43.336 28.3875 42.705C28.1025 42.5625 27.8025 42.45 27.5325 42.285L27.135 42L26.9175 41.865C26.819 41.792 26.7308 41.7063 26.655 41.61C26.4133 41.3016 26.2441 40.9427 26.16 40.56C26.073 40.2541 26.0029 39.9436 25.95 39.63C25.6613 37.5305 25.4785 35.4179 25.4025 33.3L25.095 27C25.005 25.1475 24.885 23.25 24.72 21.45C24.5025 19.0875 24.21 16.74 24.0525 14.385C24 13.635 24.18 13.71 24.5025 14.295C24.7172 14.692 24.9051 15.1029 25.065 15.525C25.27 16.1268 25.4157 16.7473 25.5 17.3775C26.1033 22.2129 26.4413 27.0777 26.5125 31.95C26.5125 33.405 26.64 34.89 26.775 36.375C26.835 37.125 26.9175 37.875 27.0225 38.625C27.1031 39.3196 27.2487 40.0051 27.4575 40.6725C27.4829 40.7347 27.5129 40.7949 27.5475 40.8525C27.5639 40.8867 27.59 40.9154 27.6225 40.935L28.0875 41.235C28.41 41.43 28.755 41.61 29.1 41.7825C29.4594 41.949 29.8304 42.0893 30.21 42.2025C30.5893 42.3252 30.9748 42.4279 31.365 42.51C32.9441 42.8567 34.5499 43.0675 36.165 43.14C38.1636 43.2442 40.1663 43.2442 42.165 43.14C45.21 42.9975 48.27 42.7275 51.2775 42.3375C53.6175 42.0375 55.8975 41.625 58.2075 41.2575L59.7075 41.01C61.62 40.7175 62.2875 40.8825 62.7075 41.115C62.8085 41.1519 62.9064 41.197 63 41.25C63.165 41.4525 62.4375 41.6025 61.065 41.9175C56.9775 42.6675 52.605 43.3575 48.1875 43.8C44.8882 44.1732 41.5703 44.3585 38.25 44.355V44.325Z" fill="#485B57"/>
<path d="M40.5 89.1975C38.7075 89.1975 36.9 89.1975 35.0925 89.025C33.2207 88.9102 31.3735 88.5392 29.6025 87.9225C29.2515 87.7865 28.9128 87.6209 28.59 87.4275L28.035 86.9925C27.919 86.9168 27.8298 86.8066 27.78 86.6775C27.7021 86.5618 27.6415 86.4355 27.6 86.3025C27.5483 86.1796 27.5106 86.0513 27.4875 85.92C27.4875 85.83 27.45 85.725 27.435 85.6425L27.36 85.1325C27.315 84.795 27.2775 84.4725 27.255 84.1425C26.9175 79.5375 26.82 75.0075 26.5575 70.4475C26.4525 68.43 26.295 66.405 26.1 64.4475C25.8375 61.8825 25.485 59.34 25.395 56.7675C25.3575 55.9725 25.605 56.0175 26.0325 56.6475C26.314 57.0688 26.5646 57.51 26.7825 57.9675C27.0539 58.6018 27.2479 59.2666 27.36 59.9475C28.0677 65.1856 28.4334 70.4643 28.455 75.75C28.455 77.34 28.5675 78.96 28.68 80.58C28.7925 82.2 28.905 83.85 29.115 85.365C29.1975 85.815 29.115 85.665 29.4375 85.9275C29.7551 86.1424 30.0914 86.3281 30.4425 86.4825C31.2255 86.7964 32.0441 87.013 32.88 87.1275C34.6174 87.3939 36.3722 87.5318 38.13 87.54C40.305 87.5775 42.495 87.54 44.6775 87.3825C47.985 87.1875 51.315 86.8875 54.585 86.475C57.135 86.1525 59.61 85.725 62.085 85.29L63.735 85.0125C64.4746 84.8597 65.2316 84.8093 65.985 84.8625C66.3571 84.8759 66.7181 84.9927 67.0275 85.2C67.1382 85.2716 67.2413 85.3546 67.335 85.4475C67.44 85.59 67.2825 85.7325 66.93 85.8825C66.39 86.1039 65.8332 86.2819 65.265 86.415C60.825 87.3 56.07 88.0125 51.2625 88.515C47.6925 88.89 44.0925 89.145 40.47 89.2275L40.5 89.1975Z" fill="#485B57"/>
<path d="M67.065 73.4175L67.14 70.26C67.14 69.8775 67.14 69.51 67.14 69.1125C67.14 67.7625 67.215 66.4051 67.1925 65.0476C67.1925 64.4476 67.1175 63.855 67.0875 63.255C66.9936 62.5089 66.9685 61.7558 67.0125 61.005C67.0125 60.7725 67.3125 60.765 67.62 60.9375C67.8044 61.0354 67.9664 61.1706 68.0955 61.3347C68.2247 61.4987 68.3182 61.6878 68.37 61.89C68.6821 63.4418 68.7855 65.0284 68.6775 66.6075C68.625 67.56 68.7675 68.535 68.805 69.5025C68.8425 70.47 68.8575 71.6325 68.85 72.6975V74.625C68.85 75.6151 68.85 76.6125 68.85 77.625C68.85 78.375 68.9925 79.125 69.0525 79.92C69.0525 80.0925 69.0525 80.2575 69.0525 80.43C69.0075 81.075 68.8425 81.2851 68.385 81.3601C68.2813 81.3848 68.1761 81.4024 68.07 81.4126C67.725 81.4126 67.455 81.1426 67.32 80.7151C67.078 79.3589 66.9699 77.9823 66.9975 76.605C66.9975 75.5475 66.9975 74.49 66.9975 73.44L67.065 73.4175Z" fill="#485B57"/>
<path d="M51.075 53.805C49.125 53.91 47.17 54.0325 45.21 54.1725C44.46 54.2325 43.7775 54.33 43.065 54.375C40.5375 54.555 37.995 54.6825 35.4525 54.6975C34.32 54.6975 33.2025 54.6975 32.055 54.6975C31.305 54.6975 30.6075 54.6975 29.88 54.6075C29.1567 54.5212 28.4434 54.3655 27.75 54.1425C27.315 54 27.4275 53.835 27.84 53.7C28.4601 53.5083 29.1036 53.4024 29.7525 53.385C32.58 53.535 35.4675 53.385 38.385 53.2725C40.14 53.2275 41.9475 52.9725 43.74 52.7925C45.7125 52.605 47.685 52.425 49.6725 52.2825C50.8875 52.1925 52.1175 52.1325 53.34 52.0725C55.1925 51.99 57.09 51.9825 58.905 51.99C60.345 51.99 61.7625 51.99 63.195 52.0425C63.51 52.0425 63.825 52.0425 64.14 52.1175C65.3175 52.2675 65.64 52.485 65.8275 52.95C65.8705 53.0547 65.9056 53.1625 65.9325 53.2725C65.9325 53.625 65.4525 53.82 64.62 53.7825C62.16 53.7 59.58 53.6025 56.9625 53.625C55.02 53.625 53.055 53.715 51.09 53.85L51.075 53.805Z" fill="#485B57"/>
<path d="M60 65.7675C58.38 67.74 56.8425 69.81 55.3875 71.94C54.8625 72.69 54.3975 73.5375 53.8875 74.325L52.5 76.4175L51.8325 77.475L51.5025 78L51 78.885C50.8424 79.1731 50.667 79.4511 50.475 79.7175L50.205 80.0775C50.1637 80.1354 50.1186 80.1905 50.07 80.2425L49.935 80.3325L49.6725 80.52L49.44 80.64C49.1925 80.64 49.05 80.52 48.8625 80.4075C48.4108 80.0532 48.0443 79.6021 47.79 79.0875C47.46 78.5475 47.0925 77.85 46.9425 77.5875C46.2483 76.2907 45.4743 75.0383 44.625 73.8375C44.0997 73.0843 43.5365 72.3584 42.9375 71.6625C42.3935 70.9926 41.7659 70.3952 41.07 69.885C40.68 69.66 40.7475 69.27 41.415 69.135C41.9145 69.0824 42.4195 69.1419 42.8931 69.3093C43.3667 69.4767 43.7969 69.7477 44.1525 70.1025C45.6002 71.5237 46.8605 73.1242 47.9025 74.865C48.165 75.285 48.42 75.705 48.6525 76.125L49.02 76.755C49.065 76.83 49.02 76.815 49.02 76.8225V76.8975C49.0342 76.9974 49.0593 77.0955 49.095 77.19C49.095 77.19 49.155 77.37 49.185 77.3325L49.2825 77.28C49.333 77.2409 49.3784 77.1955 49.4175 77.145L49.5 77.055V77.0025L49.5525 76.9125L50.4675 75.36C51.075 74.3175 51.6825 73.2675 52.335 72.255C53.7675 70.005 55.2825 67.845 56.8875 65.7375C57.8875 64.4325 58.915 63.16 59.97 61.92C61.588 60.0295 63.3293 58.2481 65.1825 56.5875C66.5969 55.2361 68.1593 54.0486 69.84 53.0475C70.22 52.8139 70.6219 52.6179 71.04 52.4625C72.63 51.87 73.29 52.05 73.68 52.65C73.7808 52.7812 73.8687 52.9219 73.9425 53.07C73.9879 53.2035 73.9899 53.348 73.9482 53.4828C73.9064 53.6175 73.823 53.7356 73.71 53.82C73.3988 54.085 73.05 54.3023 72.675 54.465C69.8729 55.9143 67.3248 57.809 65.13 60.075C63.3251 61.8797 61.6296 63.7906 60.0525 65.7975L60 65.7675Z" fill="#FFA07A"/>
<path d="M40.0575 90C36.6825 90 33.255 89.85 29.91 88.7475L29.3175 88.545L28.74 88.2675C28.3436 88.0772 27.9624 87.8565 27.6 87.6075C27.3504 87.3895 27.1617 87.1104 27.0525 86.7975C26.9664 86.5702 26.8962 86.3371 26.8425 86.1C26.4622 83.9463 26.2341 81.7684 26.16 79.5825L25.8225 73.1325C25.725 71.2275 25.59 69.315 25.425 67.4325C25.2 65.01 24.9 62.6025 24.7275 60.1875C24.675 59.4375 24.855 59.4975 25.1775 60.0975C25.3987 60.5038 25.5917 60.9248 25.755 61.3575C25.9644 61.9673 26.1175 62.5949 26.2125 63.2325C26.8223 68.1933 27.1702 73.1827 27.255 78.18C27.3075 79.68 27.405 81.18 27.555 82.68C27.63 83.43 27.72 84.18 27.84 84.93C27.9075 85.29 27.975 85.68 28.065 85.9875C28.1055 86.2423 28.2057 86.4839 28.3575 86.6925L28.425 86.7375C29.7895 87.6063 31.3236 88.174 32.925 88.4025C34.5666 88.6796 36.2257 88.84 37.89 88.8825C39.945 88.9425 42.0075 88.8825 44.07 88.7775C47.1975 88.5975 50.3325 88.2825 53.4225 87.8775C55.8225 87.555 58.1625 87.1275 60.525 86.745L62.085 86.4975C64.0425 86.19 64.725 86.3475 65.16 86.5875C65.2622 86.6353 65.3579 86.6958 65.445 86.7675C65.535 86.8725 65.3775 86.9625 65.04 87.06C64.7025 87.1575 64.1625 87.3 63.4575 87.45C59.265 88.2 54.7875 88.95 50.2575 89.4225C46.8975 89.79 43.5075 90.045 40.08 90.0825L40.0575 90Z" fill="#485B57"/>
<path fill-rule="evenodd" clip-rule="evenodd" d="M78.1684 12.9441C78.1227 12.9394 78.0765 12.9439 78.0326 12.9573C77.9886 12.9707 77.9478 12.9928 77.9125 13.0222C77.8772 13.0516 77.8481 13.0878 77.827 13.1286C77.8058 13.1695 77.7931 13.2141 77.7894 13.2599L77.7892 13.2631L77.7891 13.2631C77.772 13.4408 77.7917 13.544 77.8162 13.5985C77.8367 13.6442 77.8592 13.6552 77.8805 13.6601C77.9119 13.6673 77.9661 13.6645 78.0422 13.6343C78.1161 13.605 78.1964 13.5554 78.2709 13.4916C78.3454 13.4279 78.4086 13.3549 78.4516 13.2836C78.4957 13.2104 78.5115 13.1514 78.5108 13.1119C78.5104 13.0813 78.5011 13.0563 78.4667 13.03C78.4245 12.9978 78.3369 12.9595 78.1704 12.9442L78.1684 12.9441ZM78.2055 12.5709C78.1105 12.5613 78.0144 12.5707 77.923 12.5987C77.8313 12.6267 77.7461 12.6727 77.6724 12.7341C77.5987 12.7955 77.538 12.8711 77.4939 12.9562C77.4501 13.0409 77.4235 13.1335 77.4157 13.2285C77.3956 13.4382 77.4123 13.6146 77.4742 13.7522C77.5401 13.899 77.6544 13.9928 77.7963 14.0255C77.9282 14.0559 78.0638 14.0291 78.1804 13.9829C78.2991 13.9358 78.4144 13.8623 78.5147 13.7766C78.615 13.6907 78.706 13.5878 78.7727 13.4773C78.8383 13.3686 78.8879 13.2399 78.8858 13.1061C78.8836 12.9633 78.8221 12.8295 78.6942 12.7319C78.5742 12.6402 78.408 12.5895 78.2055 12.5709Z" fill="#C2CAC8"/>
<path fill-rule="evenodd" clip-rule="evenodd" d="M79.2785 64.724C79.2322 64.7193 79.1853 64.7238 79.1408 64.7372C79.0962 64.7507 79.0547 64.7729 79.0187 64.8025C78.9828 64.832 78.953 64.8685 78.9312 64.9096C78.9094 64.9508 78.896 64.9958 78.8917 65.0422C78.8754 65.2198 78.8957 65.3228 78.9207 65.3773C78.9417 65.4233 78.9647 65.4348 78.9871 65.44C79.0193 65.4473 79.0741 65.4443 79.1506 65.4142C79.2248 65.3848 79.3054 65.3351 79.3802 65.2714C79.4549 65.2077 79.5182 65.1347 79.5613 65.0633C79.6056 64.9902 79.6213 64.9312 79.6207 64.8917C79.6203 64.8612 79.6111 64.8362 79.5766 64.8099C79.5345 64.7777 79.4469 64.7394 79.2804 64.7242L79.2785 64.724ZM79.3155 64.3508C79.2202 64.3412 79.124 64.3506 79.0323 64.3783C78.9403 64.4061 78.8547 64.4518 78.7805 64.5129C78.7063 64.574 78.6449 64.6491 78.5999 64.734C78.5549 64.819 78.5272 64.912 78.5183 65.0077L78.5183 65.0078C78.499 65.2183 78.5166 65.3954 78.5796 65.5332C78.6466 65.6798 78.7615 65.773 78.9034 65.8055C79.0355 65.8357 79.1713 65.8091 79.2883 65.7629C79.4074 65.7159 79.523 65.6424 79.6236 65.5567C79.7242 65.4708 79.8153 65.3679 79.8822 65.2574C79.9479 65.1487 79.9977 65.02 79.9957 64.8861C79.9936 64.7433 79.9321 64.6095 79.8042 64.5118C79.6842 64.4202 79.518 64.3694 79.3155 64.3508Z" fill="#C2CAC8"/>
<path d="M71.4075 22.0725C71.5203 22.1192 71.6106 22.2078 71.6595 22.3196C71.7085 22.4315 71.7122 22.5579 71.67 22.6725C71.25 23.8425 70.1775 21.6 71.4075 22.0725Z" fill="#FFA07A"/>
</svg>
